<?xml version="1.0" encoding="utf-8" standalone="no"?>
<!DOCTYPE svg PUBLIC "-//W3C//DTD SVG 1.1//EN"
  "http://www.w3.org/Graphics/SVG/1.1/DTD/svg11.dtd">
<!-- Created with matplotlib (https://matplotlib.org/) -->
<svg height="432pt" version="1.1" viewBox="0 0 576 432" width="576pt" xmlns="http://www.w3.org/2000/svg" xmlns:xlink="http://www.w3.org/1999/xlink">
 <defs>
  <style type="text/css">
*{stroke-linecap:butt;stroke-linejoin:round;}
  </style>
 </defs>
 <g id="figure_1">
  <g id="patch_1">
   <path d="M 0 432 
L 576 432 
L 576 0 
L 0 0 
z
" style="fill:#fefefe;"/>
  </g>
  <g id="axes_1">
   <g id="patch_2">
    <path d="M 98.05121 369.86399 
L 565.2 369.86399 
L 565.2 14.75561 
L 98.05121 14.75561 
z
" style="fill:#fefefe;"/>
   </g>
   <g id="matplotlib.axis_1">
    <g id="xtick_1">
     <g id="line2d_1">
      <defs>
       <path d="M 0 0 
L 0 -7 
" id="mf7f3296f97" style="stroke:#0a0a0a;stroke-width:0.8;"/>
      </defs>
      <g>
       <use style="fill:#0a0a0a;stroke:#0a0a0a;stroke-width:0.8;" x="110.344601" xlink:href="#mf7f3296f97" y="369.86399"/>
      </g>
     </g>
     <g id="line2d_2">
      <defs>
       <path d="M 0 0 
L 0 7 
" id="m00f19058e4" style="stroke:#0a0a0a;stroke-width:0.8;"/>
      </defs>
      <g>
       <use style="fill:#0a0a0a;stroke:#0a0a0a;stroke-width:0.8;" x="110.344601" xlink:href="#m00f19058e4" y="14.75561"/>
      </g>
     </g>
     <g id="text_1">
      <!-- $0$ -->
      <defs>
       <path d="M 42 31.640625 
C 42 37.75 41.90625 48.125 37.703125 56.109375 
C 34 63.109375 28.09375 65.59375 22.90625 65.59375 
C 18.09375 65.59375 12 63.40625 8.203125 56.203125 
C 4.203125 48.71875 3.796875 39.4375 3.796875 31.640625 
C 3.796875 25.953125 3.90625 17.28125 7 9.671875 
C 11.296875 -0.609375 19 -2 22.90625 -2 
C 27.5 -2 34.5 -0.109375 38.59375 9.375 
C 41.59375 16.28125 42 24.359375 42 31.640625 
z
M 22.90625 -0.40625 
C 16.5 -0.40625 12.703125 5.078125 11.296875 12.6875 
C 10.203125 18.5625 10.203125 27.15625 10.203125 32.75 
C 10.203125 40.4375 10.203125 46.828125 11.5 52.921875 
C 13.40625 61.390625 19 64 22.90625 64 
C 27 64 32.296875 61.296875 34.203125 53.125 
C 35.5 47.4375 35.59375 40.734375 35.59375 32.75 
C 35.59375 26.25 35.59375 18.265625 34.40625 12.375 
C 32.296875 1.484375 26.40625 -0.40625 22.90625 -0.40625 
z
" id="CMR17-48"/>
      </defs>
      <g style="fill:#0a0a0a;" transform="translate(106.217036 392.36399)scale(0.18 -0.18)">
       <use transform="scale(0.996264)" xlink:href="#CMR17-48"/>
      </g>
     </g>
    </g>
    <g id="xtick_2">
     <g id="line2d_3">
      <g>
       <use style="fill:#0a0a0a;stroke:#0a0a0a;stroke-width:0.8;" x="180.780536" xlink:href="#mf7f3296f97" y="369.86399"/>
      </g>
     </g>
     <g id="line2d_4">
      <g>
       <use style="fill:#0a0a0a;stroke:#0a0a0a;stroke-width:0.8;" x="180.780536" xlink:href="#m00f19058e4" y="14.75561"/>
      </g>
     </g>
     <g id="text_2">
      <!-- $1$ -->
      <defs>
       <path d="M 26.59375 63.40625 
C 26.59375 65.5 26.5 65.5 25.09375 65.5 
C 21.203125 61.1875 15.296875 59.796875 9.703125 59.796875 
C 9.40625 59.796875 8.90625 59.796875 8.796875 59.5 
C 8.703125 59.296875 8.703125 59.09375 8.703125 57 
C 11.796875 57 17 57.59375 21 59.984375 
L 21 7.203125 
C 21 3.6875 20.796875 2.5 12.203125 2.5 
L 9.203125 2.5 
L 9.203125 0 
C 14 0 19 0 23.796875 0 
C 28.59375 0 33.59375 0 38.40625 0 
L 38.40625 2.5 
L 35.40625 2.5 
C 26.796875 2.5 26.59375 3.59375 26.59375 7.15625 
z
" id="CMR17-49"/>
      </defs>
      <g style="fill:#0a0a0a;" transform="translate(176.652971 392.36399)scale(0.18 -0.18)">
       <use transform="scale(0.996264)" xlink:href="#CMR17-49"/>
      </g>
     </g>
    </g>
    <g id="xtick_3">
     <g id="line2d_5">
      <g>
       <use style="fill:#0a0a0a;stroke:#0a0a0a;stroke-width:0.8;" x="251.21647" xlink:href="#mf7f3296f97" y="369.86399"/>
      </g>
     </g>
     <g id="line2d_6">
      <g>
       <use style="fill:#0a0a0a;stroke:#0a0a0a;stroke-width:0.8;" x="251.21647" xlink:href="#m00f19058e4" y="14.75561"/>
      </g>
     </g>
     <g id="text_3">
      <!-- $2$ -->
      <defs>
       <path d="M 41.703125 15.453125 
L 39.90625 15.453125 
C 38.90625 8.375 38.09375 7.171875 37.703125 6.5625 
C 37.203125 5.765625 30 5.765625 28.59375 5.765625 
L 9.40625 5.765625 
C 13 9.671875 20 16.75 28.5 24.953125 
C 34.59375 30.734375 41.703125 37.53125 41.703125 47.421875 
C 41.703125 59.21875 32.296875 66 21.796875 66 
C 10.796875 66 4.09375 56.3125 4.09375 47.34375 
C 4.09375 43.4375 7 42.9375 8.203125 42.9375 
C 9.203125 42.9375 12.203125 43.546875 12.203125 47.03125 
C 12.203125 50.109375 9.59375 51 8.203125 51 
C 7.59375 51 7 50.90625 6.59375 50.703125 
C 8.5 59.21875 14.296875 63.40625 20.40625 63.40625 
C 29.09375 63.40625 34.796875 56.515625 34.796875 47.421875 
C 34.796875 38.734375 29.703125 31.25 24 24.75 
L 4.09375 2.28125 
L 4.09375 0 
L 39.296875 0 
z
" id="CMR17-50"/>
      </defs>
      <g style="fill:#0a0a0a;" transform="translate(247.088905 392.36399)scale(0.18 -0.18)">
       <use transform="scale(0.996264)" xlink:href="#CMR17-50"/>
      </g>
     </g>
    </g>
    <g id="xtick_4">
     <g id="line2d_7">
      <g>
       <use style="fill:#0a0a0a;stroke:#0a0a0a;stroke-width:0.8;" x="321.652405" xlink:href="#mf7f3296f97" y="369.86399"/>
      </g>
     </g>
     <g id="line2d_8">
      <g>
       <use style="fill:#0a0a0a;stroke:#0a0a0a;stroke-width:0.8;" x="321.652405" xlink:href="#m00f19058e4" y="14.75561"/>
      </g>
     </g>
     <g id="text_4">
      <!-- $3$ -->
      <defs>
       <path d="M 22.09375 33.703125 
C 31 33.703125 34.90625 25.96875 34.90625 17.03125 
C 34.90625 5 28.5 0.390625 22.703125 0.390625 
C 17.40625 0.390625 8.796875 3.03125 6.09375 10.828125 
C 6.59375 10.625 7.09375 10.625 7.59375 10.625 
C 10 10.625 11.796875 12.21875 11.796875 14.8125 
C 11.796875 17.703125 9.59375 19 7.59375 19 
C 5.90625 19 3.296875 18.203125 3.296875 14.46875 
C 3.296875 5.234375 12.296875 -2 22.90625 -2 
C 34 -2 42.5 6.71875 42.5 16.953125 
C 42.5 26.671875 34.5 33.703125 25 34.796875 
C 32.59375 36.375 39.90625 43.0625 39.90625 52.015625 
C 39.90625 59.6875 32 65.296875 23 65.296875 
C 13.90625 65.296875 5.90625 59.828125 5.90625 52.015625 
C 5.90625 48.59375 8.5 48 9.796875 48 
C 11.90625 48 13.703125 49.296875 13.703125 51.890625 
C 13.703125 54.46875 11.90625 55.765625 9.796875 55.765625 
C 9.40625 55.765625 8.90625 55.765625 8.5 55.578125 
C 11.40625 61.859375 19.296875 63 22.796875 63 
C 26.296875 63 32.90625 61.328125 32.90625 51.875 
C 32.90625 49.109375 32.5 44.1875 29.09375 39.84375 
C 26.09375 36 22.703125 36 19.40625 35.6875 
C 18.90625 35.6875 16.59375 35.453125 16.203125 35.453125 
C 15.5 35.359375 15.09375 35.265625 15.09375 34.5 
C 15.09375 33.796875 15.203125 33.703125 17.203125 33.703125 
z
" id="CMR17-51"/>
      </defs>
      <g style="fill:#0a0a0a;" transform="translate(317.52484 392.36399)scale(0.18 -0.18)">
       <use transform="scale(0.996264)" xlink:href="#CMR17-51"/>
      </g>
     </g>
    </g>
    <g id="xtick_5">
     <g id="line2d_9">
      <g>
       <use style="fill:#0a0a0a;stroke:#0a0a0a;stroke-width:0.8;" x="392.088339" xlink:href="#mf7f3296f97" y="369.86399"/>
      </g>
     </g>
     <g id="line2d_10">
      <g>
       <use style="fill:#0a0a0a;stroke:#0a0a0a;stroke-width:0.8;" x="392.088339" xlink:href="#m00f19058e4" y="14.75561"/>
      </g>
     </g>
     <g id="text_5">
      <!-- $4$ -->
      <defs>
       <path d="M 33.59375 64.40625 
C 33.59375 66.5 33.5 66.5 31.703125 66.5 
L 2 19.59375 
L 2 17 
L 27.796875 17 
L 27.796875 7.140625 
C 27.796875 3.5 27.59375 2.5 20.59375 2.5 
L 18.703125 2.5 
L 18.703125 0 
C 21.90625 0 27.296875 0 30.703125 0 
C 34.09375 0 39.5 0 42.703125 0 
L 42.703125 2.5 
L 40.796875 2.5 
C 33.796875 2.5 33.59375 3.5 33.59375 7.140625 
L 33.59375 17 
L 43.796875 17 
L 43.796875 19.59375 
L 33.59375 19.59375 
z
M 28.09375 57.859375 
L 28.09375 19.59375 
L 4 19.59375 
z
" id="CMR17-52"/>
      </defs>
      <g style="fill:#0a0a0a;" transform="translate(387.960774 392.36399)scale(0.18 -0.18)">
       <use transform="scale(0.996264)" xlink:href="#CMR17-52"/>
      </g>
     </g>
    </g>
    <g id="xtick_6">
     <g id="line2d_11">
      <g>
       <use style="fill:#0a0a0a;stroke:#0a0a0a;stroke-width:0.8;" x="462.524274" xlink:href="#mf7f3296f97" y="369.86399"/>
      </g>
     </g>
     <g id="line2d_12">
      <g>
       <use style="fill:#0a0a0a;stroke:#0a0a0a;stroke-width:0.8;" x="462.524274" xlink:href="#m00f19058e4" y="14.75561"/>
      </g>
     </g>
     <g id="text_6">
      <!-- $5$ -->
      <defs>
       <path d="M 11.40625 57.6875 
C 12.40625 57.28125 16.5 56 20.703125 56 
C 30 56 35.09375 61.109375 38 64.0625 
C 38 64.953125 38 65.5 37.40625 65.5 
C 37.296875 65.5 37.09375 65.5 36.296875 65.046875 
C 32.796875 63.40625 28.703125 62.078125 23.703125 62.078125 
C 20.703125 62.078125 16.203125 62.484375 11.296875 64.671875 
C 10.203125 65.171875 10 65.171875 9.90625 65.171875 
C 9.40625 65.171875 9.296875 65.0625 9.296875 63.078125 
L 9.296875 34.421875 
C 9.296875 32.640625 9.296875 32.140625 10.296875 32.140625 
C 10.796875 32.140625 11 32.34375 11.5 33.03125 
C 14.703125 37.515625 19.09375 39.40625 24.09375 39.40625 
C 27.59375 39.40625 35.09375 37.21875 35.09375 20.140625 
C 35.09375 16.953125 35.09375 11.171875 32.09375 6.578125 
C 29.59375 2.484375 25.703125 0.390625 21.40625 0.390625 
C 14.796875 0.390625 8.09375 5 6.296875 12.71875 
C 6.703125 12.609375 7.5 12.421875 7.90625 12.421875 
C 9.203125 12.421875 11.703125 13.125 11.703125 16.21875 
C 11.703125 18.90625 9.796875 20 7.90625 20 
C 5.59375 20 4.09375 18.59375 4.09375 15.796875 
C 4.09375 7.09375 11 -2 21.59375 -2 
C 31.90625 -2 41.703125 6.875 41.703125 19.75 
C 41.703125 31.71875 33.90625 41 24.203125 41 
C 19.09375 41 14.796875 39.109375 11.40625 35.53125 
z
" id="CMR17-53"/>
      </defs>
      <g style="fill:#0a0a0a;" transform="translate(458.396709 392.36399)scale(0.18 -0.18)">
       <use transform="scale(0.996264)" xlink:href="#CMR17-53"/>
      </g>
     </g>
    </g>
    <g id="xtick_7">
     <g id="line2d_13">
      <g>
       <use style="fill:#0a0a0a;stroke:#0a0a0a;stroke-width:0.8;" x="532.960208" xlink:href="#mf7f3296f97" y="369.86399"/>
      </g>
     </g>
     <g id="line2d_14">
      <g>
       <use style="fill:#0a0a0a;stroke:#0a0a0a;stroke-width:0.8;" x="532.960208" xlink:href="#m00f19058e4" y="14.75561"/>
      </g>
     </g>
     <g id="text_7">
      <!-- $6$ -->
      <defs>
       <path d="M 10.59375 34 
C 10.59375 57.65625 21.796875 63 28.296875 63 
C 30.40625 63 35.5 62.640625 37.5 59 
C 35.90625 59 32.90625 59 32.90625 55.515625 
C 32.90625 52.828125 35.09375 51.921875 36.5 51.921875 
C 37.40625 51.921875 40.09375 52.3125 40.09375 55.625 
C 40.09375 61.78125 35.09375 65.296875 28.203125 65.296875 
C 16.296875 65.296875 3.796875 52.96875 3.796875 31 
C 3.796875 3.953125 15.09375 -2 23.09375 -2 
C 32.796875 -2 42 6.671875 42 20.046875 
C 42 32.515625 33.90625 41.59375 23.703125 41.59375 
C 17.59375 41.59375 13.09375 37.609375 10.59375 30.625 
z
M 23.09375 0.390625 
C 10.796875 0.390625 10.796875 18.75 10.796875 22.4375 
C 10.796875 29.625 14.203125 40 23.5 40 
C 25.203125 40 30.09375 40 33.40625 33.125 
C 35.203125 29.21875 35.203125 25.140625 35.203125 20.140625 
C 35.203125 14.75 35.203125 10.78125 33.09375 6.78125 
C 30.90625 2.671875 27.703125 0.390625 23.09375 0.390625 
z
" id="CMR17-54"/>
      </defs>
      <g style="fill:#0a0a0a;" transform="translate(528.832643 392.36399)scale(0.18 -0.18)">
       <use transform="scale(0.996264)" xlink:href="#CMR17-54"/>
      </g>
     </g>
    </g>
    <g id="text_8">
     <!-- $x$ -->
     <defs>
      <path d="M 47.40625 40.71875 
C 44.203125 40.109375 43 37.71875 43 35.828125 
C 43 33.421875 44.90625 32.625 46.296875 32.625 
C 49.296875 32.625 51.40625 35.21875 51.40625 37.921875 
C 51.40625 42.109375 46.59375 44 42.40625 44 
C 36.296875 44 32.90625 38.015625 32 36.125 
C 29.703125 44 23.5 44 21.703125 44 
C 11.5 44 6.09375 30.9375 6.09375 28.734375 
C 6.09375 28.34375 6.5 27.84375 7.203125 27.84375 
C 8 27.84375 8.203125 28.4375 8.40625 28.84375 
C 11.796875 39.921875 18.5 42.015625 21.40625 42.015625 
C 25.90625 42.015625 26.796875 37.8125 26.796875 35.421875 
C 26.796875 33.234375 26.203125 30.9375 25 26.140625 
L 21.59375 12.46875 
C 20.09375 6.484375 17.203125 1 11.90625 1 
C 11.40625 1 8.90625 1 6.796875 2.296875 
C 10.40625 3 11.203125 5.984375 11.203125 7.1875 
C 11.203125 9.1875 9.703125 10.375 7.796875 10.375 
C 5.40625 10.375 2.796875 8.28125 2.796875 5.09375 
C 2.796875 0.890625 7.5 -1 11.796875 -1 
C 16.59375 -1 20 2.796875 22.09375 6.890625 
C 23.703125 1 28.703125 -1 32.40625 -1 
C 42.59375 -1 48 12.078125 48 14.265625 
C 48 14.765625 47.59375 15.171875 47 15.171875 
C 46.09375 15.171875 46 14.671875 45.703125 13.875 
C 43 5.09375 37.203125 1 32.703125 1 
C 29.203125 1 27.296875 3.59375 27.296875 7.6875 
C 27.296875 9.875 27.703125 11.46875 29.296875 18.0625 
L 32.796875 31.625 
C 34.296875 37.625 37.703125 42.015625 42.296875 42.015625 
C 42.5 42.015625 45.296875 42.015625 47.40625 40.71875 
z
" id="CMMI12-120"/>
     </defs>
     <g style="fill:#0a0a0a;" transform="translate(324.948575 416.5318)scale(0.24 -0.24)">
      <use transform="scale(0.996264)" xlink:href="#CMMI12-120"/>
     </g>
    </g>
   </g>
   <g id="matplotlib.axis_2">
    <g id="ytick_1">
     <g id="line2d_15">
      <defs>
       <path d="M 0 0 
L 7 0 
" id="m988b441208" style="stroke:#0a0a0a;stroke-width:0.8;"/>
      </defs>
      <g>
       <use style="fill:#0a0a0a;stroke:#0a0a0a;stroke-width:0.8;" x="98.05121" xlink:href="#m988b441208" y="367.5314"/>
      </g>
     </g>
     <g id="line2d_16">
      <defs>
       <path d="M 0 0 
L -7 0 
" id="m90f8ca50d5" style="stroke:#0a0a0a;stroke-width:0.8;"/>
      </defs>
      <g>
       <use style="fill:#0a0a0a;stroke:#0a0a0a;stroke-width:0.8;" x="565.2" xlink:href="#m90f8ca50d5" y="367.5314"/>
      </g>
     </g>
     <g id="text_9">
      <!-- $-0.006$ -->
      <defs>
       <path d="M 65.90625 23 
C 67.59375 23 69.40625 23 69.40625 25 
C 69.40625 27 67.59375 27 65.90625 27 
L 11.796875 27 
C 10.09375 27 8.296875 27 8.296875 25 
C 8.296875 23 10.09375 23 11.796875 23 
z
" id="CMSY10-0"/>
       <path d="M 18.40625 4.796875 
C 18.40625 7.6875 16 9.671875 13.59375 9.671875 
C 10.703125 9.671875 8.703125 7.28125 8.703125 4.890625 
C 8.703125 2 11.09375 0 13.5 0 
C 16.40625 0 18.40625 2.390625 18.40625 4.796875 
z
" id="CMMI12-58"/>
      </defs>
      <g style="fill:#0a0a0a;" transform="translate(36.13487 373.7814)scale(0.18 -0.18)">
       <use transform="translate(0 -0.031134)scale(0.996264)" xlink:href="#CMSY10-0"/>
       <use transform="translate(77.487468 -0.031134)scale(0.996264)" xlink:href="#CMR17-48"/>
       <use transform="translate(123.177945 -0.031134)scale(0.996264)" xlink:href="#CMMI12-58"/>
       <use transform="translate(150.275122 -0.031134)scale(0.996264)" xlink:href="#CMR17-48"/>
       <use transform="translate(195.965599 -0.031134)scale(0.996264)" xlink:href="#CMR17-48"/>
       <use transform="translate(241.656076 -0.031134)scale(0.996264)" xlink:href="#CMR17-54"/>
      </g>
     </g>
    </g>
    <g id="ytick_2">
     <g id="line2d_17">
      <g>
       <use style="fill:#0a0a0a;stroke:#0a0a0a;stroke-width:0.8;" x="98.05121" xlink:href="#m988b441208" y="309.143663"/>
      </g>
     </g>
     <g id="line2d_18">
      <g>
       <use style="fill:#0a0a0a;stroke:#0a0a0a;stroke-width:0.8;" x="565.2" xlink:href="#m90f8ca50d5" y="309.143663"/>
      </g>
     </g>
     <g id="text_10">
      <!-- $-0.004$ -->
      <g style="fill:#0a0a0a;" transform="translate(36.13487 315.393663)scale(0.18 -0.18)">
       <use transform="translate(0 -0.031134)scale(0.996264)" xlink:href="#CMSY10-0"/>
       <use transform="translate(77.487468 -0.031134)scale(0.996264)" xlink:href="#CMR17-48"/>
       <use transform="translate(123.177945 -0.031134)scale(0.996264)" xlink:href="#CMMI12-58"/>
       <use transform="translate(150.275122 -0.031134)scale(0.996264)" xlink:href="#CMR17-48"/>
       <use transform="translate(195.965599 -0.031134)scale(0.996264)" xlink:href="#CMR17-48"/>
       <use transform="translate(241.656076 -0.031134)scale(0.996264)" xlink:href="#CMR17-52"/>
      </g>
     </g>
    </g>
    <g id="ytick_3">
     <g id="line2d_19">
      <g>
       <use style="fill:#0a0a0a;stroke:#0a0a0a;stroke-width:0.8;" x="98.05121" xlink:href="#m988b441208" y="250.755925"/>
      </g>
     </g>
     <g id="line2d_20">
      <g>
       <use style="fill:#0a0a0a;stroke:#0a0a0a;stroke-width:0.8;" x="565.2" xlink:href="#m90f8ca50d5" y="250.755925"/>
      </g>
     </g>
     <g id="text_11">
      <!-- $-0.002$ -->
      <g style="fill:#0a0a0a;" transform="translate(36.13487 257.005925)scale(0.18 -0.18)">
       <use transform="translate(0 -0.031134)scale(0.996264)" xlink:href="#CMSY10-0"/>
       <use transform="translate(77.487468 -0.031134)scale(0.996264)" xlink:href="#CMR17-48"/>
       <use transform="translate(123.177945 -0.031134)scale(0.996264)" xlink:href="#CMMI12-58"/>
       <use transform="translate(150.275122 -0.031134)scale(0.996264)" xlink:href="#CMR17-48"/>
       <use transform="translate(195.965599 -0.031134)scale(0.996264)" xlink:href="#CMR17-48"/>
       <use transform="translate(241.656076 -0.031134)scale(0.996264)" xlink:href="#CMR17-50"/>
      </g>
     </g>
    </g>
    <g id="ytick_4">
     <g id="line2d_21">
      <g>
       <use style="fill:#0a0a0a;stroke:#0a0a0a;stroke-width:0.8;" x="98.05121" xlink:href="#m988b441208" y="192.368188"/>
      </g>
     </g>
     <g id="line2d_22">
      <g>
       <use style="fill:#0a0a0a;stroke:#0a0a0a;stroke-width:0.8;" x="565.2" xlink:href="#m90f8ca50d5" y="192.368188"/>
      </g>
     </g>
     <g id="text_12">
      <!-- $0.000$ -->
      <g style="fill:#0a0a0a;" transform="translate(50.13492 198.618188)scale(0.18 -0.18)">
       <use transform="scale(0.996264)" xlink:href="#CMR17-48"/>
       <use transform="translate(45.690477 0)scale(0.996264)" xlink:href="#CMMI12-58"/>
       <use transform="translate(72.787654 0)scale(0.996264)" xlink:href="#CMR17-48"/>
       <use transform="translate(118.478131 0)scale(0.996264)" xlink:href="#CMR17-48"/>
       <use transform="translate(164.168608 0)scale(0.996264)" xlink:href="#CMR17-48"/>
      </g>
     </g>
    </g>
    <g id="ytick_5">
     <g id="line2d_23">
      <g>
       <use style="fill:#0a0a0a;stroke:#0a0a0a;stroke-width:0.8;" x="98.05121" xlink:href="#m988b441208" y="133.980451"/>
      </g>
     </g>
     <g id="line2d_24">
      <g>
       <use style="fill:#0a0a0a;stroke:#0a0a0a;stroke-width:0.8;" x="565.2" xlink:href="#m90f8ca50d5" y="133.980451"/>
      </g>
     </g>
     <g id="text_13">
      <!-- $0.002$ -->
      <g style="fill:#0a0a0a;" transform="translate(50.13492 140.230451)scale(0.18 -0.18)">
       <use transform="scale(0.996264)" xlink:href="#CMR17-48"/>
       <use transform="translate(45.690477 0)scale(0.996264)" xlink:href="#CMMI12-58"/>
       <use transform="translate(72.787654 0)scale(0.996264)" xlink:href="#CMR17-48"/>
       <use transform="translate(118.478131 0)scale(0.996264)" xlink:href="#CMR17-48"/>
       <use transform="translate(164.168608 0)scale(0.996264)" xlink:href="#CMR17-50"/>
      </g>
     </g>
    </g>
    <g id="ytick_6">
     <g id="line2d_25">
      <g>
       <use style="fill:#0a0a0a;stroke:#0a0a0a;stroke-width:0.8;" x="98.05121" xlink:href="#m988b441208" y="75.592713"/>
      </g>
     </g>
     <g id="line2d_26">
      <g>
       <use style="fill:#0a0a0a;stroke:#0a0a0a;stroke-width:0.8;" x="565.2" xlink:href="#m90f8ca50d5" y="75.592713"/>
      </g>
     </g>
     <g id="text_14">
      <!-- $0.004$ -->
      <g style="fill:#0a0a0a;" transform="translate(50.13492 81.842713)scale(0.18 -0.18)">
       <use transform="scale(0.996264)" xlink:href="#CMR17-48"/>
       <use transform="translate(45.690477 0)scale(0.996264)" xlink:href="#CMMI12-58"/>
       <use transform="translate(72.787654 0)scale(0.996264)" xlink:href="#CMR17-48"/>
       <use transform="translate(118.478131 0)scale(0.996264)" xlink:href="#CMR17-48"/>
       <use transform="translate(164.168608 0)scale(0.996264)" xlink:href="#CMR17-52"/>
      </g>
     </g>
    </g>
    <g id="ytick_7">
     <g id="line2d_27">
      <g>
       <use style="fill:#0a0a0a;stroke:#0a0a0a;stroke-width:0.8;" x="98.05121" xlink:href="#m988b441208" y="17.204976"/>
      </g>
     </g>
     <g id="line2d_28">
      <g>
       <use style="fill:#0a0a0a;stroke:#0a0a0a;stroke-width:0.8;" x="565.2" xlink:href="#m90f8ca50d5" y="17.204976"/>
      </g>
     </g>
     <g id="text_15">
      <!-- $0.006$ -->
      <g style="fill:#0a0a0a;" transform="translate(50.13492 23.454976)scale(0.18 -0.18)">
       <use transform="scale(0.996264)" xlink:href="#CMR17-48"/>
       <use transform="translate(45.690477 0)scale(0.996264)" xlink:href="#CMMI12-58"/>
       <use transform="translate(72.787654 0)scale(0.996264)" xlink:href="#CMR17-48"/>
       <use transform="translate(118.478131 0)scale(0.996264)" xlink:href="#CMR17-48"/>
       <use transform="translate(164.168608 0)scale(0.996264)" xlink:href="#CMR17-54"/>
      </g>
     </g>
    </g>
    <g id="text_16">
     <!-- Absolute error -->
     <defs>
      <path d="M 36.296875 68.40625 
C 35.796875 69.703125 35.59375 70 34.59375 70 
C 33.59375 70 33.40625 69.703125 32.90625 68.40625 
L 11.703125 8.84375 
C 9.796875 3.484375 5.796875 2.390625 2.296875 2.390625 
L 2.296875 -0.203125 
C 4.09375 0 8.09375 0 10 0 
C 12.5 0 16.5 0 18.90625 -0.203125 
L 18.90625 2.390625 
C 14.203125 2.390625 13.5 5.640625 13.5 6.859375 
C 13.5 7.765625 13.703125 8.28125 13.90625 8.890625 
L 19.203125 24 
L 45.40625 24 
L 51.40625 6.90625 
C 51.90625 5.703125 51.90625 5.5 51.90625 5.109375 
C 51.90625 2.390625 47.59375 2.390625 45.703125 2.390625 
L 45.703125 0 
C 48.59375 0 53.796875 0 56.90625 0 
C 59.5 0 64.5 0 66.90625 -0.203125 
L 66.90625 2.390625 
C 61.59375 2.390625 59.796875 2.390625 58.5 6.046875 
z
M 32.296875 60.828125 
L 44.5 26.59375 
L 20.09375 26.59375 
z
" id="CMR17-65"/>
      <path d="M 15 68.6875 
L 3.09375 67.59375 
L 3.09375 65 
C 9 65 9.90625 64.40625 9.90625 59.640625 
L 9.90625 -0.203125 
L 11.703125 -0.203125 
L 14.59375 6.890625 
C 17.5 2.203125 21.796875 -1 27.59375 -1 
C 37.59375 -1 47.703125 7.8125 47.703125 21.40625 
C 47.703125 34.1875 38.703125 43.59375 28.59375 43.59375 
C 22.40625 43.59375 18 40.296875 15 36.40625 
z
M 15.203125 31.3125 
C 15.203125 33.09375 15.203125 33.40625 16.59375 35.5 
C 20.5 41.515625 26.09375 42 28 42 
C 31 42 41.296875 40.390625 41.296875 21.5 
C 41.296875 1.6875 29.5 0.59375 27.09375 0.59375 
C 24 0.59375 19.5 1.78125 16.296875 7.59375 
C 15.203125 9.5 15.203125 9.703125 15.203125 11.484375 
z
" id="CMR17-98"/>
      <path d="M 30.90625 42.140625 
C 30.90625 43.953125 30.796875 44.046875 30.203125 44.046875 
C 29.796875 44.046875 29.703125 43.953125 28.5 42.453125 
C 28.203125 42.046875 27.296875 41.03125 27 40.640625 
C 23.796875 44.046875 19.296875 44.046875 17.59375 44.046875 
C 6.5 44.046875 2.5 38.234375 2.5 32.4375 
C 2.5 23.40625 12.703125 21.328125 15.59375 20.703125 
C 21.90625 19.421875 24.09375 19.015625 26.203125 17.203125 
C 27.5 16.015625 29.703125 13.8125 29.703125 10.21875 
C 29.703125 6 27.296875 0.59375 18.09375 0.59375 
C 9.40625 0.59375 6.296875 7.1875 4.5 15.953125 
C 4.203125 17.34375 4.203125 17.453125 3.40625 17.453125 
C 2.59375 17.453125 2.5 17.34375 2.5 15.359375 
L 2.5 0.984375 
C 2.5 -0.796875 2.59375 -0.90625 3.203125 -0.90625 
C 3.703125 -0.90625 3.796875 -0.796875 4.296875 0 
C 4.90625 0.890625 6.40625 3.296875 7 4.3125 
C 9 1.609375 12.5 -1 18.09375 -1 
C 28 -1 33.296875 4.421875 33.296875 12.25 
C 33.296875 17.375 30.59375 20.078125 29.296875 21.28125 
C 26.296875 24.390625 22.796875 25.09375 18.59375 25.890625 
C 13.09375 27.109375 6.09375 28.515625 6.09375 34.640625 
C 6.09375 37.234375 7.5 42.765625 17.59375 42.765625 
C 28.296875 42.765625 28.90625 32.71875 29.09375 29.5 
C 29.203125 29 29.703125 28.890625 30 28.890625 
C 30.90625 28.890625 30.90625 29.203125 30.90625 30.90625 
z
" id="CMR17-115"/>
      <path d="M 43.09375 21.1875 
C 43.09375 34 33.796875 44 22.90625 44 
C 12 44 2.703125 34 2.703125 21.1875 
C 2.703125 8.609375 12 -1 22.90625 -1 
C 33.796875 -1 43.09375 8.609375 43.09375 21.1875 
z
M 22.90625 0.796875 
C 18.203125 0.796875 14.203125 3.59375 11.90625 7.5 
C 9.40625 11.984375 9.09375 17.59375 9.09375 22 
C 9.09375 26.203125 9.296875 31.40625 11.90625 35.90625 
C 13.90625 39.203125 17.796875 42.40625 22.90625 42.40625 
C 27.40625 42.40625 31.203125 39.90625 33.59375 36.40625 
C 36.703125 31.703125 36.703125 25.109375 36.703125 22 
C 36.703125 18.09375 36.5 12.109375 33.796875 7.296875 
C 31 2.703125 26.703125 0.796875 22.90625 0.796875 
z
" id="CMR17-111"/>
      <path d="M 15.296875 68.6875 
L 3.40625 67.59375 
L 3.40625 65 
C 9.296875 65 10.203125 64.40625 10.203125 59.640625 
L 10.203125 6.65625 
C 10.203125 2.875 9.796875 2.390625 3.40625 2.390625 
L 3.40625 -0.203125 
C 5.796875 0 10.203125 0 12.703125 0 
C 15.296875 0 19.703125 0 22.09375 -0.203125 
L 22.09375 2.390625 
C 15.703125 2.390625 15.296875 2.78125 15.296875 6.65625 
z
" id="CMR17-108"/>
      <path d="M 29.40625 42.078125 
L 29.40625 39.5 
C 35.296875 39.5 36.203125 38.890625 36.203125 34.15625 
L 36.203125 16.125 
C 36.203125 7.8125 31.703125 0.59375 24.296875 0.59375 
C 16.09375 0.59375 15.40625 5.4375 15.40625 10.59375 
L 15.40625 43.171875 
L 3.296875 42.078125 
L 3.296875 39.5 
C 7.296875 39.5 10 39.5 10.09375 35.53125 
L 10.09375 16.53125 
C 10.09375 9.890625 10.09375 5.640625 12.703125 2.859375 
C 14 1.578125 16.5 -1 23.703125 -1 
C 32.203125 -1 35.5 5.890625 36.296875 7.90625 
L 36.40625 7.90625 
L 36.40625 -0.984375 
L 48.296875 -0.984375 
L 48.296875 2 
C 42.40625 2 41.5 2.59375 41.5 7.390625 
L 41.5 43.171875 
z
" id="CMR17-117"/>
      <path d="M 15.09375 40 
L 29.09375 40 
L 29.09375 42.578125 
L 15.09375 42.578125 
L 15.09375 61 
L 13.296875 61 
C 13.09375 50.703125 9.59375 41.6875 1.09375 41.6875 
L 1.09375 40 
L 9.796875 40 
L 9.796875 12.046875 
C 9.796875 10.15625 9.796875 -1 21.40625 -1 
C 27.296875 -1 30.703125 4.78125 30.703125 12.140625 
L 30.703125 17.8125 
L 28.90625 17.8125 
L 28.90625 12.234375 
C 28.90625 5.375 26.203125 0.796875 22 0.796875 
C 19.09375 0.796875 15.09375 2.78125 15.09375 11.84375 
z
" id="CMR17-116"/>
      <path d="M 38.09375 23 
C 38.5 23.40625 38.5 23.609375 38.5 24.625 
C 38.5 34.96875 33.09375 44 21.703125 44 
C 11.09375 44 2.703125 33.890625 2.703125 21.609375 
C 2.703125 8.609375 12.203125 -1 22.796875 -1 
C 34 -1 38.40625 9.484375 38.40625 11.5625 
C 38.40625 12.25 37.796875 12.25 37.59375 12.25 
C 36.90625 12.25 36.796875 12.046875 36.40625 10.875 
C 34.203125 4.140625 28.703125 0.796875 23.5 0.796875 
C 19.203125 0.796875 14.90625 3.171875 12.203125 7.5 
C 9.09375 12.546875 9.09375 18.375 9.09375 23 
z
M 9.203125 24.5 
C 9.90625 39.140625 17.59375 42.40625 21.59375 42.40625 
C 28.40625 42.40625 33 35.890625 33.09375 24.5 
z
" id="CMR17-101"/>
      <path d="M 15 23.390625 
C 15 33 19.09375 42 26.59375 42 
C 27.296875 42 28 41.90625 28.703125 41.59375 
C 28.703125 41.59375 26.5 40.890625 26.5 38.3125 
C 26.5 35.90625 28.40625 34.90625 29.90625 34.90625 
C 31.09375 34.90625 33.296875 35.609375 33.296875 38.40625 
C 33.296875 41.609375 30.09375 43.59375 26.703125 43.59375 
C 19.09375 43.59375 15.796875 36.203125 14.796875 32.703125 
L 14.703125 32.703125 
L 14.703125 43.59375 
L 3.09375 42.5 
L 3.09375 39.90625 
C 9 39.90625 9.90625 39.296875 9.90625 34.5 
L 9.90625 6.6875 
C 9.90625 2.875 9.5 2.390625 3.09375 2.390625 
L 3.09375 -0.203125 
C 5.5 0 10.09375 0 12.703125 0 
C 15.59375 0 20.703125 0 23.40625 -0.203125 
L 23.40625 2.390625 
C 16.203125 2.390625 15 2.390625 15 6.875 
z
" id="CMR17-114"/>
     </defs>
     <g style="fill:#0a0a0a;" transform="translate(27.46667 261.578995)rotate(-90)scale(0.24 -0.24)">
      <use transform="scale(0.996264)" xlink:href="#CMR17-65"/>
      <use transform="translate(69.07243 0)scale(0.996264)" xlink:href="#CMR17-98"/>
      <use transform="translate(119.9678 0)scale(0.996264)" xlink:href="#CMR17-115"/>
      <use transform="translate(155.769137 0)scale(0.996264)" xlink:href="#CMR17-111"/>
      <use transform="translate(201.459614 0)scale(0.996264)" xlink:href="#CMR17-108"/>
      <use transform="translate(226.330673 0)scale(0.996264)" xlink:href="#CMR17-117"/>
      <use transform="translate(277.226043 0)scale(0.996264)" xlink:href="#CMR17-116"/>
      <use transform="translate(312.50681 0)scale(0.996264)" xlink:href="#CMR17-101"/>
      <use transform="translate(383.068437 0)scale(0.996264)" xlink:href="#CMR17-101"/>
      <use transform="translate(423.554098 0)scale(0.996264)" xlink:href="#CMR17-114"/>
      <use transform="translate(458.834865 0)scale(0.996264)" xlink:href="#CMR17-114"/>
      <use transform="translate(494.115633 0)scale(0.996264)" xlink:href="#CMR17-111"/>
      <use transform="translate(539.80611 0)scale(0.996264)" xlink:href="#CMR17-114"/>
     </g>
    </g>
   </g>
   <g id="line2d_29">
    <path clip-path="url(#p9db0c364f3)" d="M 119.285246 299.376562 
L 123.755575 286.895015 
L 128.225897 270.070589 
L 132.69622 249.523944 
L 137.166542 226.014122 
L 141.636864 200.414018 
L 146.107186 173.669515 
L 150.577516 146.779043 
L 155.047838 120.738112 
L 159.51816 96.530556 
L 163.988482 75.067224 
L 168.458805 57.142188 
L 172.929134 43.479458 
L 177.399456 34.604522 
L 181.869757 30.8969 
L 186.340115 32.502563 
L 190.810402 39.450704 
L 195.280759 51.525288 
L 199.751046 68.361392 
L 204.221404 89.398494 
L 208.691691 113.93594 
L 213.162048 141.144626 
L 217.632335 170.096186 
L 222.102693 199.812624 
L 226.57298 229.275077 
L 231.043337 257.473434 
L 235.513695 283.458897 
L 239.983982 306.341051 
L 244.454339 325.355018 
L 248.924626 339.873129 
L 253.394983 349.402007 
L 257.86527 353.7227 
L 262.335628 352.671721 
L 266.805915 346.307457 
L 271.276272 335.00943 
L 275.746559 319.127966 
L 280.216917 299.337442 
L 284.687204 276.391061 
L 289.157561 251.144204 
L 293.627848 224.557348 
L 298.098206 197.614326 
L 302.568493 171.319409 
L 307.03885 146.65059 
L 311.509137 124.518718 
L 315.979495 105.74706 
L 320.449782 91.024884 
L 324.920139 80.898407 
L 329.390426 75.739996 
L 333.860784 75.739996 
L 338.331071 80.898407 
L 342.801428 91.024884 
L 347.271715 105.74706 
L 351.742073 124.518718 
L 356.21243 146.65059 
L 360.682717 171.319409 
L 365.153075 197.614326 
L 369.623362 224.557348 
L 374.093719 251.144204 
L 378.564006 276.391061 
L 383.034364 299.337442 
L 387.504651 319.127966 
L 391.975008 335.00943 
L 396.445295 346.307457 
L 400.915653 352.671721 
L 405.38594 353.7227 
L 409.856297 349.402007 
L 414.326584 339.873129 
L 418.796941 325.355018 
L 423.267228 306.341051 
L 427.737586 283.458897 
L 432.207873 257.473434 
L 436.67823 229.275077 
L 441.148517 199.812624 
L 445.618875 170.096186 
L 450.089162 141.144626 
L 454.559519 113.93594 
L 459.029806 89.398494 
L 463.500164 68.361392 
L 467.970451 51.525288 
L 472.440808 39.450704 
L 476.911095 32.502563 
L 481.381453 30.8969 
L 485.85181 34.604522 
L 490.322097 43.479458 
L 494.792455 57.142188 
L 499.262742 75.067224 
L 503.733099 96.530556 
L 508.203386 120.738112 
L 512.673744 146.779043 
L 517.144031 173.669515 
L 521.614388 200.414018 
L 526.084675 226.014122 
L 530.555033 249.523944 
L 535.02532 270.070589 
L 539.495677 286.895015 
L 543.965964 299.376562 
" style="fill:none;stroke:#87cefa;stroke-linecap:square;stroke-width:2;"/>
   </g>
   <g id="line2d_30">
    <path clip-path="url(#p9db0c364f3)" d="M 119.285246 191.589296 
L 123.755575 190.64575 
L 128.225897 189.375816 
L 132.69622 187.83438 
L 137.166542 186.085667 
L 141.636864 184.196824 
L 146.107186 182.249593 
L 150.577516 180.322798 
L 155.047838 178.498181 
L 159.51816 176.863324 
L 163.988482 175.494132 
L 168.458805 174.413959 
L 172.929134 173.771694 
L 177.399456 173.538143 
L 181.869757 173.713306 
L 186.340115 174.413959 
L 190.810402 175.523326 
L 195.280759 177.111472 
L 199.751046 179.105413 
L 204.221404 181.458439 
L 208.691691 184.118001 
L 213.162048 187.005274 
L 217.632335 190.041437 
L 222.102693 193.145329 
L 226.57298 196.227617 
L 231.043337 199.199553 
L 235.513695 201.981729 
L 239.983982 204.495321 
L 244.454339 206.676103 
L 248.924626 208.468607 
L 253.394983 209.826121 
L 257.86527 210.731131 
L 262.335628 211.198233 
L 266.805915 211.139845 
L 271.276272 210.701937 
L 275.746559 209.826121 
L 280.216917 208.599979 
L 284.687204 207.081898 
L 289.157561 205.341943 
L 293.627848 203.458939 
L 298.098206 201.511708 
L 302.568493 199.581993 
L 307.03885 197.754457 
L 311.509137 196.099164 
L 315.979495 194.686181 
L 320.449782 193.575646 
L 324.920139 192.808723 
L 329.390426 192.417467 
L 333.860784 192.417467 
L 338.331071 192.808723 
L 342.801428 193.575646 
L 347.271715 194.686181 
L 351.742073 196.099164 
L 356.21243 197.754457 
L 360.682717 199.581993 
L 365.153075 201.511708 
L 369.623362 203.458939 
L 374.093719 205.341943 
L 378.564006 207.081898 
L 383.034364 208.599979 
L 387.504651 209.826121 
L 391.975008 210.701937 
L 396.445295 211.139845 
L 400.915653 211.198233 
L 405.38594 210.731131 
L 409.856297 209.826121 
L 414.326584 208.468607 
L 418.796941 206.676103 
L 423.267228 204.495321 
L 427.737586 201.981729 
L 432.207873 199.199553 
L 436.67823 196.227617 
L 441.148517 193.145329 
L 445.618875 190.041437 
L 450.089162 187.005274 
L 454.559519 184.118001 
L 459.029806 181.458439 
L 463.500164 179.105413 
L 467.970451 177.111472 
L 472.440808 175.523326 
L 476.911095 174.413959 
L 481.381453 173.713306 
L 485.85181 173.538143 
L 490.322097 173.771694 
L 494.792455 174.413959 
L 499.262742 175.494132 
L 503.733099 176.863324 
L 508.203386 178.498181 
L 512.673744 180.322798 
L 517.144031 182.249593 
L 521.614388 184.196824 
L 526.084675 186.085667 
L 530.555033 187.83438 
L 535.02532 189.375816 
L 539.495677 190.64575 
L 543.965964 191.589296 
" style="fill:none;stroke:#1e90ff;stroke-linecap:square;stroke-width:2;"/>
   </g>
   <g id="patch_3">
    <path d="M 98.05121 369.86399 
L 98.05121 14.75561 
" style="fill:none;stroke:#0a0a0a;stroke-linecap:square;stroke-linejoin:miter;stroke-width:0.8;"/>
   </g>
   <g id="patch_4">
    <path d="M 565.2 369.86399 
L 565.2 14.75561 
" style="fill:none;stroke:#0a0a0a;stroke-linecap:square;stroke-linejoin:miter;stroke-width:0.8;"/>
   </g>
   <g id="patch_5">
    <path d="M 98.05121 369.86399 
L 565.2 369.86399 
" style="fill:none;stroke:#0a0a0a;stroke-linecap:square;stroke-linejoin:miter;stroke-width:0.8;"/>
   </g>
   <g id="patch_6">
    <path d="M 98.05121 14.75561 
L 565.2 14.75561 
" style="fill:none;stroke:#0a0a0a;stroke-linecap:square;stroke-linejoin:miter;stroke-width:0.8;"/>
   </g>
   <g id="legend_1">
    <g id="patch_7">
     <path d="M 274.6999 357.86399 
L 548.4 357.86399 
Q 553.2 357.86399 553.2 353.06399 
L 553.2 288.52759 
Q 553.2 283.72759 548.4 283.72759 
L 274.6999 283.72759 
Q 269.8999 283.72759 269.8999 288.52759 
L 269.8999 353.06399 
Q 269.8999 357.86399 274.6999 357.86399 
z
" style="fill:#fefefe;opacity:0.8;stroke:#cccccc;stroke-linejoin:miter;"/>
    </g>
    <g id="line2d_31">
     <path d="M 279.4999 301.72759 
L 327.4999 301.72759 
" style="fill:none;stroke:#87cefa;stroke-linecap:square;stroke-width:2;"/>
    </g>
    <g id="line2d_32"/>
    <g id="text_17">
     <!-- Naive derivative -->
     <defs>
      <path d="M 20.5 66.40625 
C 19.796875 67.5 19.703125 67.5 17.796875 67.5 
L 5.09375 67.5 
L 5.09375 65 
L 7 65 
C 11 65 12.796875 64.515625 13.09375 64.40625 
L 13.09375 9.53125 
C 13.09375 7.046875 13.09375 2.390625 5.09375 2.390625 
L 5.09375 -0.203125 
C 7.40625 0 11.59375 0 14.09375 0 
C 16.59375 0 20.796875 0 23.09375 -0.203125 
L 23.09375 2.390625 
C 15.09375 2.390625 15.09375 7.046875 15.09375 9.53125 
L 15.09375 63.015625 
C 15.796875 62.421875 15.796875 62.21875 16.5 61.234375 
L 53.59375 1.1875 
C 54.296875 0 54.59375 0 55.09375 0 
C 56.09375 0 56.09375 0.296875 56.09375 2.171875 
L 56.09375 57.890625 
C 56.09375 60.359375 56.09375 65 64.09375 65 
L 64.09375 67.59375 
C 61.796875 67.5 57.59375 67.5 55.09375 67.5 
C 52.59375 67.5 48.40625 67.5 46.09375 67.59375 
L 46.09375 65 
C 54.09375 65 54.09375 60.34375 54.09375 57.859375 
L 54.09375 11.921875 
z
" id="CMR17-78"/>
      <path d="M 36 25.828125 
C 36 32.375 36 35.84375 31.796875 39.734375 
C 28.09375 43 23.796875 44 20.40625 44 
C 12.5 44 6.796875 37.609375 6.796875 30.796875 
C 6.796875 27 9.796875 27 10.40625 27 
C 11.703125 27 14 27.78125 14 30.53125 
C 14 33 12.09375 34.078125 10.40625 34.078125 
C 10 34.078125 9.5 33.96875 9.203125 33.875 
C 11.296875 40.5 16.703125 42.40625 20.203125 42.40625 
C 25.203125 42.40625 30.703125 37.953125 30.703125 29.453125 
L 30.703125 25 
C 24.796875 25 17.703125 24.203125 12.09375 21.203125 
C 5.796875 17.703125 4 12.703125 4 8.90625 
C 4 1.203125 13 -1 18.296875 -1 
C 23.796875 -1 28.90625 2.171875 31.09375 7.984375 
C 31.296875 3.640625 34.09375 -0.28125 38.5 -0.28125 
C 40.59375 -0.28125 45.90625 1.09375 45.90625 8.859375 
L 45.90625 14.375 
L 44.09375 14.375 
L 44.09375 8.78125 
C 44.09375 2.78125 41.40625 2 40.09375 2 
C 36 2 36 7.15625 36 11.53125 
z
M 30.703125 13.59375 
C 30.703125 4.953125 24.5 0.59375 19 0.59375 
C 14 0.59375 10.09375 4.296875 10.09375 8.90625 
C 10.09375 11.890625 11.40625 17.1875 17.203125 20.390625 
C 22 23.09375 27.5 23.5 30.703125 23.5 
z
" id="CMR17-97"/>
      <path d="M 15.5 61.078125 
C 15.5 63.265625 13.703125 65.15625 11.40625 65.15625 
C 9.203125 65.15625 7.296875 63.375 7.296875 61.078125 
C 7.296875 58.890625 9.09375 57 11.40625 57 
C 13.59375 57 15.5 58.796875 15.5 61.078125 
z
M 3.796875 42.28125 
L 3.796875 39.703125 
C 9.40625 39.703125 10.203125 39.09375 10.203125 34.328125 
L 10.203125 6.671875 
C 10.203125 2.875 9.796875 2.390625 3.40625 2.390625 
L 3.40625 -0.203125 
C 5.796875 0 10.09375 0 12.59375 0 
C 15 0 19.09375 0 21.40625 -0.203125 
L 21.40625 2.390625 
C 15.5 2.390625 15.296875 2.984375 15.296875 6.5625 
L 15.296875 43.375 
z
" id="CMR17-105"/>
      <path d="M 39.09375 33.796875 
C 40 36 41.59375 40 47.40625 40 
L 47.40625 42.59375 
C 45.5 42.59375 43 42.59375 41.09375 42.59375 
C 39 42.59375 35.703125 42.59375 33.703125 42.6875 
L 33.703125 40.09375 
C 36.203125 39.890625 37.59375 38.703125 37.59375 36.109375 
C 37.59375 35.203125 37.59375 35 37 33.609375 
L 26 5.890625 
L 14.09375 35.71875 
C 13.5 37.015625 13.5 37.203125 13.5 37.609375 
C 13.5 40 16.796875 40 18.296875 40 
L 18.296875 42.6875 
C 15.90625 42.59375 11.5 42.59375 9 42.59375 
C 6.296875 42.59375 3.203125 42.59375 1 42.6875 
L 1 40 
C 4.796875 40 6.90625 40 8.09375 36.90625 
L 22.59375 0.6875 
C 23.203125 -0.796875 23.296875 -1 24.203125 -1 
C 25.09375 -1 25.203125 -0.796875 25.796875 0.6875 
z
" id="CMR17-118"/>
      <path d="M 29.203125 67.59375 
L 29.203125 65 
C 35.09375 65 36 64.40625 36 59.6875 
L 36 36.640625 
C 35.59375 37.140625 31.5 43.59375 23.40625 43.59375 
C 13.203125 43.59375 3.296875 34.5 3.296875 21.3125 
C 3.296875 8.203125 12.59375 -1 22.40625 -1 
C 30.90625 -1 35.296875 5.265625 35.796875 5.9375 
L 35.796875 -0.984375 
L 47.90625 -0.984375 
L 47.90625 2 
C 42 2 41.09375 2.59375 41.09375 7.390625 
L 41.09375 68.6875 
z
M 35.796875 11.796875 
C 35.796875 8.796875 34 6.09375 31.703125 4.09375 
C 28.296875 1.09375 24.90625 0.59375 23 0.59375 
C 20.09375 0.59375 9.703125 2.09375 9.703125 21.1875 
C 9.703125 40.8125 21.296875 42 23.90625 42 
C 28.5 42 32.203125 39.40625 34.5 35.796875 
C 35.796875 33.703125 35.796875 33.40625 35.796875 31.609375 
z
" id="CMR17-100"/>
     </defs>
     <g style="fill:#0a0a0a;" transform="translate(346.6999 310.12759)scale(0.24 -0.24)">
      <use transform="scale(0.996264)" xlink:href="#CMR17-78"/>
      <use transform="translate(69.07243 0)scale(0.996264)" xlink:href="#CMR17-97"/>
      <use transform="translate(114.762907 0)scale(0.996264)" xlink:href="#CMR17-105"/>
      <use transform="translate(139.633965 0)scale(0.996264)" xlink:href="#CMR17-118"/>
      <use transform="translate(185.324427 0)scale(0.996264)" xlink:href="#CMR17-101"/>
      <use transform="translate(255.886054 0)scale(0.996264)" xlink:href="#CMR17-100"/>
      <use transform="translate(306.781424 0)scale(0.996264)" xlink:href="#CMR17-101"/>
      <use transform="translate(347.267084 0)scale(0.996264)" xlink:href="#CMR17-114"/>
      <use transform="translate(382.547852 0)scale(0.996264)" xlink:href="#CMR17-105"/>
      <use transform="translate(407.418911 0)scale(0.996264)" xlink:href="#CMR17-118"/>
      <use transform="translate(450.50701 0)scale(0.996264)" xlink:href="#CMR17-97"/>
      <use transform="translate(496.197487 0)scale(0.996264)" xlink:href="#CMR17-116"/>
      <use transform="translate(531.478255 0)scale(0.996264)" xlink:href="#CMR17-105"/>
      <use transform="translate(556.349313 0)scale(0.996264)" xlink:href="#CMR17-118"/>
      <use transform="translate(602.039775 0)scale(0.996264)" xlink:href="#CMR17-101"/>
     </g>
    </g>
    <g id="line2d_33">
     <path d="M 279.4999 335.19579 
L 327.4999 335.19579 
" style="fill:none;stroke:#1e90ff;stroke-linecap:square;stroke-width:2;"/>
    </g>
    <g id="line2d_34"/>
    <g id="text_18">
     <!-- Expanded derivative -->
     <defs>
      <path d="M 60.703125 25.234375 
L 58.90625 25.234375 
C 56.703125 10.5625 55.40625 2.59375 37.796875 2.59375 
L 23.90625 2.59375 
C 19.90625 2.59375 19.703125 3.078125 19.703125 6.46875 
L 19.703125 34 
L 29.09375 34 
C 38.5 34 39.40625 30.625 39.40625 22.34375 
L 41.203125 22.34375 
L 41.203125 48.140625 
L 39.40625 48.140625 
C 39.40625 39.953125 38.5 36.59375 29.09375 36.59375 
L 19.703125 36.59375 
L 19.703125 61.140625 
C 19.703125 64.5 19.90625 65 23.90625 65 
L 37.59375 65 
C 53.09375 65 54.90625 58.890625 56.296875 45.765625 
L 58.09375 45.765625 
L 55.703125 67.578125 
L 5.09375 67.578125 
L 5.09375 65 
C 12 65 13.09375 65 13.09375 60.53125 
L 13.09375 7.046875 
C 13.09375 2.59375 12 2.59375 5.09375 2.59375 
L 5.09375 0 
L 57.09375 0 
z
" id="CMR17-69"/>
      <path d="M 26 23.078125 
C 29 26.96875 32.40625 31.34375 35.203125 34.625 
C 38.5 38.40625 42.296875 40 46.703125 40 
L 46.703125 42.59375 
C 45 42.59375 41.5 42.59375 39.703125 42.59375 
C 37 42.59375 33.90625 42.59375 31.59375 42.6875 
L 31.59375 40.09375 
C 33 39.890625 33.796875 38.890625 33.796875 37.5 
C 33.796875 35.703125 32.796875 34.609375 32.296875 33.921875 
L 24.90625 24.578125 
L 16.09375 36.03125 
C 15.203125 37.125 15.203125 37.3125 15.203125 37.8125 
C 15.203125 39.015625 16.203125 40 17.90625 40 
L 17.90625 42.6875 
C 15.5 42.59375 11.203125 42.59375 8.703125 42.59375 
C 6 42.59375 2.796875 42.59375 0.59375 42.6875 
L 0.59375 40 
C 6 40 7.203125 39.59375 9.59375 36.609375 
L 21.09375 21.796875 
C 21.296875 21.59375 21.796875 21 21.796875 20.703125 
C 21.796875 20.296875 13.09375 9.671875 12 8.28125 
C 7.5 2.890625 2.796875 2.5 0.09375 2.5 
L 0.09375 0 
C 1.796875 0 5.296875 0 7.09375 0 
C 9.09375 0 13.5 0 15.296875 -0.09375 
L 15.296875 2.5 
C 14.703125 2.59375 13.09375 2.796875 13.09375 5.078125 
C 13.09375 6.875 13.90625 7.96875 14.796875 9.15625 
L 23.09375 19.3125 
L 31.796875 8 
C 32.59375 6.90625 33.796875 5.40625 33.796875 4.703125 
C 33.796875 3.296875 32.59375 2.5 31 2.5 
L 31 -0.09375 
C 33.40625 0 37.703125 0 40.203125 0 
C 42.90625 0 46.09375 0 48.296875 -0.09375 
L 48.296875 2.5 
C 43.296875 2.5 41.796875 2.6875 39.40625 5.78125 
z
" id="CMR17-120"/>
      <path d="M 22 -16.609375 
C 15.59375 -16.609375 15.203125 -16.203125 15.203125 -12.328125 
L 15.203125 6.28125 
C 18.09375 2.09375 22.296875 -0.59375 27.59375 -0.59375 
C 37.59375 -0.59375 47.703125 8.171875 47.703125 21.6875 
C 47.703125 34.234375 39 43.78125 28.703125 43.78125 
C 22.703125 43.78125 17.796875 40.5 15 36.53125 
L 15 43.78125 
L 3.09375 42.6875 
L 3.09375 40.109375 
C 9 40.109375 9.90625 39.5 9.90625 34.734375 
L 9.90625 -12.328125 
C 9.90625 -16.109375 9.5 -16.609375 3.09375 -16.609375 
L 3.09375 -19.1875 
C 5.5 -19 9.90625 -19 12.5 -19 
C 15.09375 -19 19.59375 -19 22 -19.1875 
z
M 15.203125 31.4375 
C 15.203125 32.84375 15.203125 34.921875 19.09375 38.609375 
C 19.59375 39.015625 23 42 28 42 
C 35.296875 42 41.296875 32.9375 41.296875 21.59375 
C 41.296875 10.25 34.90625 1 27 1 
C 23.40625 1 19.5 2.6875 16.5 7.375 
C 15.203125 9.5625 15.203125 10.15625 15.203125 11.75 
z
" id="CMR17-112"/>
      <path d="M 41.5 30.203125 
C 41.5 35.296875 40.5 43.59375 28.703125 43.59375 
C 20.796875 43.59375 16.703125 37.5 15.203125 33.5 
L 15.09375 33.5 
L 15.09375 43.59375 
L 3.296875 42.5 
L 3.296875 39.90625 
C 9.203125 39.90625 10.09375 39.296875 10.09375 34.5 
L 10.09375 6.6875 
C 10.09375 2.875 9.703125 2.390625 3.296875 2.390625 
L 3.296875 -0.203125 
C 5.703125 0 10.09375 0 12.703125 0 
C 15.296875 0 19.796875 0 22.203125 -0.203125 
L 22.203125 2.390625 
C 15.796875 2.390625 15.40625 2.78125 15.40625 6.6875 
L 15.40625 25.90625 
C 15.40625 35.109375 21 42 28 42 
C 35.40625 42 36.203125 35.40625 36.203125 30.59375 
L 36.203125 6.6875 
C 36.203125 2.875 35.796875 2.390625 29.40625 2.390625 
L 29.40625 -0.203125 
C 31.796875 0 36.203125 0 38.796875 0 
C 41.40625 0 45.90625 0 48.296875 -0.203125 
L 48.296875 2.390625 
C 41.90625 2.390625 41.5 2.78125 41.5 6.6875 
z
" id="CMR17-110"/>
     </defs>
     <g style="fill:#0a0a0a;" transform="translate(346.6999 343.59579)scale(0.24 -0.24)">
      <use transform="translate(0 -0.072667)scale(0.996264)" xlink:href="#CMR17-69"/>
      <use transform="translate(62.586301 -0.072667)scale(0.996264)" xlink:href="#CMR17-120"/>
      <use transform="translate(110.879216 -0.072667)scale(0.996264)" xlink:href="#CMR17-112"/>
      <use transform="translate(161.774586 -0.072667)scale(0.996264)" xlink:href="#CMR17-97"/>
      <use transform="translate(207.465063 -0.072667)scale(0.996264)" xlink:href="#CMR17-110"/>
      <use transform="translate(258.360433 -0.072667)scale(0.996264)" xlink:href="#CMR17-100"/>
      <use transform="translate(309.255803 -0.072667)scale(0.996264)" xlink:href="#CMR17-101"/>
      <use transform="translate(349.741463 -0.072667)scale(0.996264)" xlink:href="#CMR17-100"/>
      <use transform="translate(430.712799 -0.072667)scale(0.996264)" xlink:href="#CMR17-100"/>
      <use transform="translate(481.608169 -0.072667)scale(0.996264)" xlink:href="#CMR17-101"/>
      <use transform="translate(522.09383 -0.072667)scale(0.996264)" xlink:href="#CMR17-114"/>
      <use transform="translate(557.374597 -0.072667)scale(0.996264)" xlink:href="#CMR17-105"/>
      <use transform="translate(582.245656 -0.072667)scale(0.996264)" xlink:href="#CMR17-118"/>
      <use transform="translate(625.333755 -0.072667)scale(0.996264)" xlink:href="#CMR17-97"/>
      <use transform="translate(671.024232 -0.072667)scale(0.996264)" xlink:href="#CMR17-116"/>
      <use transform="translate(706.305 -0.072667)scale(0.996264)" xlink:href="#CMR17-105"/>
      <use transform="translate(731.176059 -0.072667)scale(0.996264)" xlink:href="#CMR17-118"/>
      <use transform="translate(776.86652 -0.072667)scale(0.996264)" xlink:href="#CMR17-101"/>
     </g>
    </g>
   </g>
  </g>
 </g>
 <defs>
  <clipPath id="p9db0c364f3">
   <rect height="355.10838" width="467.14879" x="98.05121" y="14.75561"/>
  </clipPath>
 </defs>
</svg>
