<?xml version="1.0" encoding="UTF-8" standalone="no"?>
<svg
   xmlns:osb="http://www.openswatchbook.org/uri/2009/osb"
   xmlns:dc="http://purl.org/dc/elements/1.1/"
   xmlns:cc="http://creativecommons.org/ns#"
   xmlns:rdf="http://www.w3.org/1999/02/22-rdf-syntax-ns#"
   xmlns:svg="http://www.w3.org/2000/svg"
   xmlns="http://www.w3.org/2000/svg"
   xmlns:xlink="http://www.w3.org/1999/xlink"
   width="29.791588mm"
   height="25.558256mm"
   viewBox="0 0 29.791588 25.558256"
   version="1.1"
   id="svg8">
  <defs
     id="defs2">
    <pattern
       xlink:href="#Wavy-647-965-129-326-758"
       id="pattern3006"
       patternTransform="matrix(1.0053404,0,0,0.91998218,33.481904,31.151079)" />
    <pattern
       patternTransform="matrix(0.46128223,0,0,0.57809222,43.302507,35.104277)"
       id="pattern2376"
       xlink:href="#Wavy" />
    <pattern
       patternUnits="userSpaceOnUse"
       width="30.066020"
       height="5.1805778"
       id="Wavy">
      <path
         style="fill:#242424;stroke:none;;opacity:1"
         d="M 7.597,0.061 C 5.079,-0.187 2.656,0.302 -0.01,1.788 L -0.01,3.061 C 2.773,1.431 5.173,1.052 7.472,1.280 C 9.770,1.508 11.969,2.361 14.253,3.218 C 18.820,4.931 23.804,6.676 30.066,3.061 L 30.062,1.788 C 23.622,5.497 19.246,3.770 14.691,2.061 C 12.413,1.207 10.115,0.311 7.597,0.061 z "
         id="path2220" />
    </pattern>
    <linearGradient
       osb:paint="solid"
       id="linearGradient2358">
      <stop
         id="stop2356"
         offset="0"
         style="stop-color:#242424;stop-opacity:1;;opacity:1" />
    </linearGradient>
    <linearGradient
       osb:paint="solid"
       id="linearGradient2352">
      <stop
         id="stop2350"
         offset="0"
         style="stop-color:#6a7a94;stop-opacity:1;;opacity:1" />
    </linearGradient>
    <pattern
       patternTransform="matrix(0.46128223,0,0,0.57809222,43.302507,35.633444)"
       id="pattern2376-504"
       xlink:href="#Wavy-647" />
    <pattern
       patternUnits="userSpaceOnUse"
       width="30.066020"
       height="5.1805778"
       id="Wavy-647">
      <path
         style="fill:#4baefe;stroke:none;;opacity:1"
         d="M 7.597,0.061 C 5.079,-0.187 2.656,0.302 -0.01,1.788 L -0.01,3.061 C 2.773,1.431 5.173,1.052 7.472,1.280 C 9.770,1.508 11.969,2.361 14.253,3.218 C 18.820,4.931 23.804,6.676 30.066,3.061 L 30.062,1.788 C 23.622,5.497 19.246,3.770 14.691,2.061 C 12.413,1.207 10.115,0.311 7.597,0.061 z "
         id="path2387" />
    </pattern>
    <pattern
       patternTransform="matrix(0.46128223,0,0,0.57809222,43.302507,35.633444)"
       id="pattern2376-504-826"
       xlink:href="#Wavy-647-965" />
    <pattern
       patternUnits="userSpaceOnUse"
       width="30.066020"
       height="5.1805778"
       id="Wavy-647-965">
      <path
         style="fill:#4dadf9;stroke:none;;opacity:1"
         d="M 7.597,0.061 C 5.079,-0.187 2.656,0.302 -0.01,1.788 L -0.01,3.061 C 2.773,1.431 5.173,1.052 7.472,1.280 C 9.770,1.508 11.969,2.361 14.253,3.218 C 18.820,4.931 23.804,6.676 30.066,3.061 L 30.062,1.788 C 23.622,5.497 19.246,3.770 14.691,2.061 C 12.413,1.207 10.115,0.311 7.597,0.061 z "
         id="path2455" />
    </pattern>
    <pattern
       patternTransform="matrix(0.46128223,0,0,0.57809222,43.302507,35.633444)"
       id="pattern2376-504-826-790"
       xlink:href="#Wavy-647-965-129" />
    <pattern
       patternUnits="userSpaceOnUse"
       width="30.066020"
       height="5.1805778"
       id="Wavy-647-965-129">
      <path
         style="fill:#65b8f9;stroke:none;;opacity:1"
         d="M 7.597,0.061 C 5.079,-0.187 2.656,0.302 -0.01,1.788 L -0.01,3.061 C 2.773,1.431 5.173,1.052 7.472,1.280 C 9.770,1.508 11.969,2.361 14.253,3.218 C 18.820,4.931 23.804,6.676 30.066,3.061 L 30.062,1.788 C 23.622,5.497 19.246,3.770 14.691,2.061 C 12.413,1.207 10.115,0.311 7.597,0.061 z "
         id="path2578" />
    </pattern>
    <pattern
       patternTransform="matrix(0.46128223,0,0,0.57809222,43.302507,35.633444)"
       id="pattern2376-504-826-790-875"
       xlink:href="#Wavy-647-965-129-326" />
    <pattern
       patternUnits="userSpaceOnUse"
       width="30.066020"
       height="5.1805778"
       id="Wavy-647-965-129-326">
      <path
         style="fill:#7dc3f9;stroke:none;;opacity:1"
         d="M 7.597,0.061 C 5.079,-0.187 2.656,0.302 -0.01,1.788 L -0.01,3.061 C 2.773,1.431 5.173,1.052 7.472,1.280 C 9.770,1.508 11.969,2.361 14.253,3.218 C 18.820,4.931 23.804,6.676 30.066,3.061 L 30.062,1.788 C 23.622,5.497 19.246,3.770 14.691,2.061 C 12.413,1.207 10.115,0.311 7.597,0.061 z "
         id="path2644" />
    </pattern>
    <pattern
       patternTransform="matrix(0.46128223,0,0,0.57809222,47.535843,35.633444)"
       id="pattern2376-504-826-790-875-852"
       xlink:href="#Wavy-647-965-129-326-758" />
    <pattern
       patternUnits="userSpaceOnUse"
       width="30.066020"
       height="5.1805778"
       id="Wavy-647-965-129-326-758">
      <path
         style="fill:#95cefa;stroke:none;;opacity:1"
         d="M 7.597,0.061 C 5.079,-0.187 2.656,0.302 -0.01,1.788 L -0.01,3.061 C 2.773,1.431 5.173,1.052 7.472,1.280 C 9.770,1.508 11.969,2.361 14.253,3.218 C 18.820,4.931 23.804,6.676 30.066,3.061 L 30.062,1.788 C 23.622,5.497 19.246,3.770 14.691,2.061 C 12.413,1.207 10.115,0.311 7.597,0.061 z "
         id="path2716" />
    </pattern>
    <pattern
       xlink:href="#Wavy-647-965-129-326-758-15"
       id="pattern3006-526"
       patternTransform="matrix(1.0053404,0,0,0.91998218,33.481904,31.151079)" />
    <pattern
       patternUnits="userSpaceOnUse"
       width="30.066020"
       height="5.1805778"
       id="Wavy-647-965-129-326-758-15">
      <path
         style="fill:#add9fb;stroke:none;;opacity:1"
         d="M 7.597,0.061 C 5.079,-0.187 2.656,0.302 -0.01,1.788 L -0.01,3.061 C 2.773,1.431 5.173,1.052 7.472,1.280 C 9.770,1.508 11.969,2.361 14.253,3.218 C 18.820,4.931 23.804,6.676 30.066,3.061 L 30.062,1.788 C 23.622,5.497 19.246,3.770 14.691,2.061 C 12.413,1.207 10.115,0.311 7.597,0.061 z "
         id="path3033" />
    </pattern>
    <pattern
       xlink:href="#Wavy-647-965-129-326-758-15-681"
       id="pattern3006-526-954"
       patternTransform="matrix(1.0053404,0,0,0.91998218,33.481904,31.151079)" />
    <pattern
       patternUnits="userSpaceOnUse"
       width="30.066020"
       height="5.1805778"
       id="Wavy-647-965-129-326-758-15-681">
      <path
         style="fill:#c5e4fc;stroke:none;;opacity:1"
         d="M 7.597,0.061 C 5.079,-0.187 2.656,0.302 -0.01,1.788 L -0.01,3.061 C 2.773,1.431 5.173,1.052 7.472,1.280 C 9.770,1.508 11.969,2.361 14.253,3.218 C 18.820,4.931 23.804,6.676 30.066,3.061 L 30.062,1.788 C 23.622,5.497 19.246,3.770 14.691,2.061 C 12.413,1.207 10.115,0.311 7.597,0.061 z "
         id="path3121" />
    </pattern>
    <pattern
       xlink:href="#Wavy-647-965-129-326-758-15-681-381"
       id="pattern3006-526-954-738"
       patternTransform="matrix(1.0053404,0,0,0.91998218,37.71524,31.151079)" />
    <pattern
       patternUnits="userSpaceOnUse"
       width="30.066020"
       height="5.1805778"
       id="Wavy-647-965-129-326-758-15-681-381">
      <path
         style="fill:#ddeffd;stroke:none;;opacity:1"
         d="M 7.597,0.061 C 5.079,-0.187 2.656,0.302 -0.01,1.788 L -0.01,3.061 C 2.773,1.431 5.173,1.052 7.472,1.280 C 9.770,1.508 11.969,2.361 14.253,3.218 C 18.820,4.931 23.804,6.676 30.066,3.061 L 30.062,1.788 C 23.622,5.497 19.246,3.770 14.691,2.061 C 12.413,1.207 10.115,0.311 7.597,0.061 z "
         id="path3564" />
    </pattern>
  </defs>
  <metadata
     id="metadata5">
    <rdf:RDF>
      <cc:Work
         rdf:about="">
        <dc:format>image/svg+xml</dc:format>
        <dc:type
           rdf:resource="http://purl.org/dc/dcmitype/StillImage" />
        <dc:title></dc:title>
      </cc:Work>
    </rdf:RDF>
  </metadata>
  <g
     transform="translate(-82.801613,-83.732849)"
     id="layer1"
     style="display:inline;opacity:1">
    <rect
       style="opacity:1;fill:url(#pattern3006-526-954-738);fill-opacity:1;fill-rule:evenodd;stroke:none;stroke-width:9.61714745;stroke-linecap:round;stroke-linejoin:miter;stroke-miterlimit:4;stroke-dasharray:none;stroke-dashoffset:0;stroke-opacity:1"
       id="rect3004"
       width="29.791588"
       height="25.558256"
       x="82.801613"
       y="83.732849" />
    <rect
       y="83.732849"
       x="82.801613"
       height="25.558254"
       width="29.791588"
       id="rect874"
       style="opacity:1;fill:url(#pattern2376-504-826-790-875-852);fill-opacity:1;fill-rule:evenodd;stroke:none;stroke-width:5.16394901;stroke-linecap:round;stroke-linejoin:miter;stroke-miterlimit:4;stroke-dasharray:none;stroke-dashoffset:0;stroke-opacity:1" />
    <g
       id="g827"
       transform="translate(0.5291667,-3.1750001)">
      <g
         id="content"
         transform="matrix(0.3,0,0,-0.3,-52.5,222.75)"
         xml:space="preserve"
         stroke-miterlimit="10.433"
         font-style="normal"
         font-variant="normal"
         font-weight="normal"
         font-stretch="normal"
         font-size-adjust="none"
         letter-spacing="normal"
         word-spacing="normal"
         style="font-style:normal;font-variant:normal;font-weight:normal;font-stretch:normal;letter-spacing:normal;word-spacing:normal;text-anchor:start;opacity:1;fill:none;fill-opacity:1;fill-rule:evenodd;stroke:#242424;stroke-linecap:butt;stroke-linejoin:miter;stroke-miterlimit:10.43299961;stroke-dasharray:none;stroke-dashoffset:0;stroke-opacity:1"><path
           d="m 491.1,437.54 -0.05,0.19 -0.06,0.19 -0.06,0.19 -0.07,0.19 -0.07,0.19 -0.08,0.18 -0.09,0.18 -0.1,0.19 -0.1,0.17 -0.12,0.18 -0.11,0.17 -0.13,0.17 -0.13,0.16 -0.15,0.16 -0.15,0.16 -0.15,0.14 -0.17,0.15 -0.17,0.13 -0.19,0.13 -0.19,0.12 -0.2,0.12 -0.21,0.11 -0.21,0.09 -0.23,0.09 -0.23,0.08 -0.25,0.08 -0.25,0.06 -0.26,0.05 -0.28,0.04 -0.28,0.03 -0.29,0.02 h -0.3 l 0.12,-0.98 c 3.4,0 4.5,-2.64 4.5,-4.74 0,-2.32 -2.26,-9.75 -8.1,-9.75 v 0 c -3.94,0 -4.4,2.96 -4.4,4.03 0,1.36 0.94,4.79 1.29,5.66 0.62,1.59 2.79,4.8 6.71,4.8 l -0.12,0.98 c -4.89,0 -8.92,-3.65 -10.19,-6.79 -0.2,-0.6 -0.69,-2.02 -0.69,-3.43 0,-2.39 1.88,-6.37 7.32,-6.37 9.03,0 12.68,11.26 12.68,16.2 0,5.97 -3.9,9.38 -8.57,9.38 -5.68,0 -7.25,-4.53 -7.25,-5.61 0,-0.28 0.18,-1.25 1.4,-1.25 1.22,0 1.94,1.08 1.94,1.92 0,0.94 -0.69,1.25 -1.34,1.31 1.73,2.63 4.59,2.63 5.18,2.63 2.61,0 5.72,-1.64 5.72,-6.6 0,-1.5 -0.18,-2.72 -0.84,-5.5 z"
           id="path818"
           style="opacity:1;fill:#242424;stroke-width:0" /><polyline
           points="462,418 508.08,418 508.08,420.04 462,420.04 "
           id="polyline820"
           style="opacity:1;fill:#242424;fill-rule:nonzero;stroke-width:0" /><path
           d="m 479.82,400.82 -0.05,0.19 -0.06,0.19 -0.06,0.19 -0.07,0.19 -0.07,0.18 -0.09,0.19 -0.08,0.18 -0.1,0.18 -0.11,0.18 -0.11,0.18 -0.12,0.17 -0.12,0.17 -0.14,0.16 -0.14,0.16 -0.15,0.15 -0.15,0.15 -0.17,0.14 -0.17,0.14 -0.19,0.13 -0.19,0.12 -0.2,0.12 -0.21,0.1 -0.21,0.1 -0.23,0.09 -0.23,0.08 -0.25,0.07 -0.25,0.06 -0.27,0.06 -0.27,0.04 -0.28,0.03 -0.29,0.01 -0.3,0.01 0.12,-0.98 c 3.39,0 4.5,-2.65 4.5,-4.74 0,-2.33 -2.26,-9.75 -8.11,-9.75 v 0 c -3.93,0 -4.39,2.95 -4.39,4.03 0,1.36 0.94,4.78 1.28,5.66 0.63,1.59 2.8,4.8 6.72,4.8 l -0.12,0.98 c -4.89,0 -8.92,-3.66 -10.19,-6.8 -0.2,-0.59 -0.69,-2.01 -0.69,-3.42 0,-2.39 1.88,-6.37 7.32,-6.37 9.03,0 12.68,11.26 12.68,16.2 0,5.97 -3.9,9.37 -8.57,9.37 -5.68,0 -7.25,-4.53 -7.25,-5.61 0,-0.28 0.18,-1.25 1.4,-1.25 1.22,0 1.94,1.08 1.94,1.93 0,0.93 -0.69,1.25 -1.34,1.31 1.73,2.62 4.59,2.62 5.18,2.62 2.61,0 5.72,-1.64 5.72,-6.59 0,-1.5 -0.19,-2.72 -0.84,-5.5 z"
           id="path822"
           style="opacity:1;fill:#242424;stroke-width:0" /><path
           d="m 493.59,392.73 -0.03,-0.11 -0.04,-0.12 -0.05,-0.12 -0.05,-0.12 -0.05,-0.13 -0.06,-0.12 -0.06,-0.13 -0.07,-0.13 -0.07,-0.12 -0.07,-0.13 -0.08,-0.13 -0.09,-0.13 -0.09,-0.12 -0.09,-0.13 -0.1,-0.12 -0.1,-0.11 -0.11,-0.12 -0.11,-0.11 -0.11,-0.1 -0.12,-0.11 -0.12,-0.09 -0.13,-0.09 -0.13,-0.09 -0.13,-0.07 -0.14,-0.07 -0.14,-0.06 -0.14,-0.06 -0.15,-0.04 -0.16,-0.04 -0.15,-0.02 -0.16,-0.02 -0.17,-0.01 c -0.11,0 -1.15,0 -1.89,0.49 1.44,0.45 1.53,1.72 1.53,1.92 0,0.77 -0.59,1.3 -1.39,1.3 -0.96,0 -1.98,-0.85 -1.98,-2.14 0,-1.74 1.95,-2.53 3.66,-2.53 1.61,0 3.03,1 3.9,2.46 0.83,-1.84 2.75,-2.46 4.14,-2.46 4.02,0 6.14,4.34 6.14,5.32 0,0.46 -0.45,0.46 -0.56,0.46 -0.48,0 -0.51,-0.18 -0.66,-0.6 -0.73,-2.4 -2.82,-4.22 -4.78,-4.22 -1.39,0 -2.12,0.94 -2.12,2.27 0,0.91 0.84,4.08 1.81,7.95 0.7,2.67 2.27,3.55 3.42,3.55 0.07,0 1.14,0 1.88,-0.48 -1.11,-0.32 -1.53,-1.3 -1.53,-1.93 0,-0.76 0.59,-1.28 1.39,-1.28 0.81,0 1.95,0.66 1.95,2.13 0,1.95 -2.23,2.53 -3.62,2.53 -1.74,0 -3.15,-1.14 -3.91,-2.47 -0.63,1.44 -2.22,2.47 -4.17,2.47 -3.91,0 -6.14,-4.28 -6.14,-5.33 0,-0.45 0.5,-0.45 0.59,-0.45 0.45,0 0.48,0.14 0.67,0.59 0.86,2.72 3.06,4.22 4.77,4.22 1.15,0 2.09,-0.63 2.09,-2.3 0,-0.7 -0.42,-2.43 -0.73,-3.62 z"
           id="path824"
           style="opacity:1;fill:#242424;stroke-width:0" /></g>    </g>
    <text
       xml:space="preserve"
       style="font-style:normal;font-variant:normal;font-weight:normal;font-stretch:normal;font-size:7.9375px;line-height:9.70138931px;font-family:cmr10;-inkscape-font-specification:'cmr10, Normal';text-align:center;letter-spacing:0px;word-spacing:0px;writing-mode:lr-tb;text-anchor:middle;opacity:1;fill:#242424;fill-opacity:1;stroke:none;stroke-width:0.26458332px;stroke-linecap:butt;stroke-linejoin:miter;stroke-opacity:1"
       x="105.17188"
       y="91.683327"
       id="text2423"><tspan
         id="tspan2421"
         x="105.17188"
         y="91.683327"
         style="line-height:9.70138931px;opacity:1;stroke-width:0.26458332px">+</tspan></text>
    <text
       xml:space="preserve"
       style="font-style:normal;font-variant:normal;font-weight:normal;font-stretch:normal;font-size:7.9375px;line-height:100%;font-family:cmr10;-inkscape-font-specification:'cmr10, Normal';text-align:center;letter-spacing:0px;word-spacing:0px;writing-mode:lr-tb;text-anchor:middle;display:inline;opacity:1;fill:#242424;fill-opacity:1;stroke:none;stroke-width:0.26458332px;stroke-linecap:butt;stroke-linejoin:miter;stroke-opacity:1"
       x="105.17188"
       y="98.827095"
       id="text2423-0"><tspan
         id="tspan2421-8"
         x="105.17188"
         y="98.827095"
         style="opacity:1;stroke-width:0.26458332px">+</tspan></text>
    <g
       id="text3632"
       style="font-style:normal;font-variant:normal;font-weight:normal;font-stretch:normal;font-size:7.9375px;line-height:100%;font-family:'URW Chancery L';-inkscape-font-specification:'URW Chancery L';text-align:center;letter-spacing:0px;word-spacing:0px;writing-mode:lr-tb;text-anchor:middle;fill:#000000;fill-opacity:1;stroke:none;stroke-width:0.26458332px;stroke-linecap:butt;stroke-linejoin:miter;stroke-opacity:1"
       aria-label="benzaiten">
      <path
         id="path1061"
         style="stroke-width:0.26458332px"
         d="m 84.478518,108.6193 0.254,-0.21431 c 0.22225,0.0794 0.388937,0.11906 0.53975,0.11906 0.15875,0 0.301625,-0.0476 0.508,-0.17462 0.166687,-0.11113 0.34925,-0.21431 0.53975,-0.32544 0.277812,-0.15081 0.452437,-0.32544 0.587375,-0.57944 0.254,-0.45243 0.4445,-1.15093 0.4445,-1.61925 0,-0.36512 -0.182563,-0.60325 -0.468313,-0.60325 -0.261937,0 -0.484187,0.11907 -1.277937,0.68263 0.04762,-0.18256 0.07144,-0.30956 0.08731,-0.36513 0.174625,-0.85725 0.174625,-0.85725 0.198438,-0.92868 0.0635,-0.254 0.182562,-0.56357 0.269875,-0.71438 0.134937,-0.23019 0.277812,-0.30162 0.579437,-0.30162 h 0.22225 0.119063 l 0.325437,-0.46038 c -0.111125,-0.0159 -0.277812,-0.0238 -0.357187,-0.0238 -0.28575,0 -0.428625,0.0873 -1.095375,0.635 -0.53975,0.43656 -0.53975,0.43656 -0.817563,1.67481 l -0.452437,1.96056 c -0.142875,0.61913 -0.15875,0.6985 -0.28575,1.2065 z m 1.04775,-2.38918 c 0.452437,-0.33338 0.73025,-0.47625 0.912812,-0.47625 0.15875,0 0.261938,0.15081 0.261938,0.38893 0,0.3175 -0.09525,0.79375 -0.230188,1.13507 -0.214312,0.53181 -0.492125,0.79375 -0.841375,0.79375 -0.15875,0 -0.3175,-0.0476 -0.523875,-0.15082 z" />
      <path
         id="path1063"
         style="stroke-width:0.26458332px"
         d="m 90.05796,107.39693 c -0.595313,0.51594 -0.976313,0.73819 -1.277938,0.73819 -0.198437,0 -0.365125,-0.13494 -0.420687,-0.34132 -0.03175,-0.127 -0.03969,-0.21431 -0.03969,-0.4445 0.357188,-0.22225 0.595313,-0.38893 1.063625,-0.73818 0.428625,-0.32544 0.595313,-0.58738 0.595313,-0.94457 0,-0.27781 -0.174625,-0.4445 -0.452438,-0.4445 -0.174625,0 -0.301625,0.0397 -0.484187,0.14288 -0.301625,0.17462 -0.5715,0.38894 -0.738188,0.57944 -0.301625,0.36512 -0.5715,1.23825 -0.5715,1.88118 0,0.46832 0.246063,0.762 0.650875,0.762 0.468313,0 1.04775,-0.33337 1.674813,-0.96043 z m -1.7145,-0.33338 c 0.134937,-0.84931 0.500062,-1.50812 0.841375,-1.50812 0.134937,0 0.22225,0.13494 0.22225,0.32544 0,0.39687 -0.214313,0.635 -1.063625,1.18268 z" />
      <path
         id="path1065"
         style="stroke-width:0.26458332px"
         d="m 91.04097,108.33355 0.468312,-1.86531 c 0.992188,-0.62706 1.016,-0.635 1.127125,-0.635 0.05556,0 0.08731,0.0397 0.08731,0.10319 0,0.11906 -0.0635,0.42069 -0.293688,1.32556 -0.174625,0.70644 -0.206375,0.84138 -0.206375,0.99219 0,0.11112 0.03175,0.21431 0.119063,0.35719 0.365125,-0.16669 0.912812,-0.508 1.468437,-0.92075 l 0.05556,-0.22225 c -0.79375,0.45243 -0.8255,0.46831 -0.904875,0.46831 -0.07937,0 -0.127,-0.0873 -0.127,-0.21431 0,-0.16669 0.05556,-0.42863 0.206375,-0.97632 0.373062,-1.3335 0.373062,-1.3335 0.373062,-1.38906 0,-0.0873 -0.05556,-0.13494 -0.15875,-0.13494 -0.119062,0 -0.293687,0.0714 -0.579437,0.254 l -1.087438,0.67469 c 0.07144,-0.26194 0.1905,-0.762 0.1905,-0.8255 0,-0.0556 -0.04762,-0.10319 -0.103187,-0.10319 -0.08731,0 -0.658813,0.29369 -1.246188,0.64294 l -0.04762,0.20638 c 0.508,-0.23019 0.53975,-0.23813 0.611188,-0.23813 0.05556,0 0.09525,0.0476 0.09525,0.11113 0,0.16668 -0.150813,0.8255 -0.34925,1.54781 l -0.182563,0.64294 c -0.01587,0.0556 -0.05556,0.20637 -0.111125,0.42862 z" />
      <path
         id="path1067"
         style="stroke-width:0.26458332px"
         d="m 93.763036,108.19068 c 0,0.0397 0.0079,0.0794 0.02381,0.15081 0.150812,-0.0952 0.214312,-0.13494 0.381,-0.23019 0.111125,0.0397 0.214312,0.0714 0.254,0.0794 0.0079,0 0.373062,0.127 0.531812,0.1905 0.428625,0.15081 0.66675,0.20637 0.85725,0.20637 0.277813,0 0.47625,-0.11112 0.85725,-0.48418 0.325438,-0.30957 0.4445,-0.50007 0.4445,-0.6985 0,-0.10319 -0.02381,-0.18257 -0.111125,-0.35719 -0.07144,0.0476 -0.142875,0.0953 -0.22225,0.14287 -0.103187,0.0635 -0.119062,0.0714 -0.246062,0.16669 0.07144,0.15875 0.08731,0.23019 0.08731,0.32544 0,0.254 -0.206375,0.45244 -0.460375,0.45244 -0.277812,0 -0.500062,-0.0714 -1.42875,-0.48419 l 0.341313,-0.33338 1.801812,-1.73037 0.28575,-0.29369 v -0.0556 c 0.0079,-0.0476 0.0079,-0.0873 0.0079,-0.10319 v -0.0317 c -0.325438,0.22225 -0.381,0.23813 -0.79375,0.23813 -0.1905,0 -0.968375,-0.0159 -1.087438,-0.0238 h -0.0635 c -0.22225,0 -0.238125,0.0159 -0.619125,1.03188 l 0.142875,0.15081 0.111125,-0.23019 c 0.166688,-0.37306 0.246063,-0.43656 0.587375,-0.45243 l 0.547688,-0.008 c 0.206375,-0.008 0.214312,-0.008 0.381,-0.0476 -0.6985,0.67469 -1.524,1.42875 -2.611438,2.38125 z" />
      <path
         id="path1069"
         style="stroke-width:0.26458332px"
         d="m 100.79132,107.45249 c -0.59531,0.39688 -0.71437,0.46831 -0.79375,0.46831 -0.05556,0 -0.09525,-0.0635 -0.09525,-0.15875 0,-0.20637 0.1905,-1.0795 0.47625,-2.13518 0.0873,-0.11907 0.10319,-0.14288 0.23019,-0.28575 -0.381,-0.0873 -0.658815,-0.11907 -1.000127,-0.11907 -0.325438,0 -0.47625,0.0318 -0.682625,0.15875 -0.28575,0.16669 -0.619125,0.41275 -0.722313,0.52388 -0.293687,0.33337 -0.627062,1.40494 -0.627062,2.04787 0,0.381 0.127,0.635 0.325437,0.635 0.174625,0 0.436563,-0.15875 1.42875,-0.87312 -0.07937,0.36512 -0.119062,0.61119 -0.119062,0.70644 0,0.10318 0.04762,0.16668 0.127,0.16668 0.09525,0 0.09525,0 0.730252,-0.40481 0.23019,-0.15081 0.41275,-0.27781 0.71437,-0.50006 z m -1.547812,0.0476 c -0.468313,0.34131 -0.706438,0.47625 -0.849313,0.47625 -0.127,0 -0.206375,-0.14288 -0.206375,-0.39688 0,-0.39687 0.127,-0.93662 0.325438,-1.38906 0.1905,-0.43656 0.365125,-0.60325 0.635,-0.60325 0.142875,0 0.388937,0.0397 0.674687,0.10319 -0.15875,0.60325 -0.214312,0.78581 -0.22225,0.8255 -0.04762,0.19843 -0.08731,0.39687 -0.134937,0.60325 -0.0079,0.0397 -0.03175,0.13493 -0.07144,0.27781 z" />
      <path
         id="path1071"
         style="stroke-width:0.26458332px"
         d="m 102.14008,104.56324 c 0.23018,-0.20637 0.24606,-0.22225 0.51593,-0.42862 -0.0476,-0.0952 -0.0873,-0.15875 -0.10318,-0.18257 -0.0476,-0.0952 -0.0556,-0.10318 -0.11907,-0.254 -0.0159,-0.0317 -0.0318,-0.0635 -0.0476,-0.10318 -0.0397,0.0318 -0.0873,0.0635 -0.11113,0.0873 -0.0317,0.0318 -0.0952,0.0794 -0.17462,0.14287 -0.0397,0.0318 -0.0953,0.0714 -0.16669,0.11907 -0.0318,0.0238 -0.0635,0.0476 -0.0953,0.0635 0.0556,0.17462 0.127,0.30162 0.30163,0.55562 z m 0.54768,3.00038 c -0.75406,0.40481 -0.76993,0.41275 -0.87312,0.41275 -0.0873,0 -0.14288,-0.0873 -0.14288,-0.22225 0,-0.0794 0.0238,-0.23019 0.0714,-0.40482 0.40481,-1.66687 0.48419,-1.98437 0.48419,-2.04787 0,-0.0476 -0.0397,-0.0794 -0.0952,-0.0794 -0.13494,0 -0.60325,0.26194 -1.25413,0.6985 l -0.0159,0.22225 c 0.46831,-0.254 0.508,-0.26987 0.57944,-0.26987 0.0635,0 0.0952,0.0476 0.0952,0.14287 0,0.10319 -0.0238,0.21432 -0.14288,0.66675 -0.37306,1.38907 -0.37306,1.38907 -0.37306,1.5875 0,0.1905 0.0794,0.3175 0.1905,0.3175 0.13494,0 0.34925,-0.10318 0.76994,-0.37306 0.15081,-0.0952 0.30162,-0.1905 0.45243,-0.29369 0.0714,-0.0397 0.14288,-0.0873 0.22225,-0.13493 z" />
      <path
         id="path1073"
         style="stroke-width:0.26458332px"
         d="m 105.00737,107.48424 c -0.60325,0.35719 -0.85725,0.49213 -0.96837,0.49213 -0.10319,0 -0.23019,-0.20638 -0.23019,-0.37307 0,-0.11112 0.13494,-0.72231 0.34131,-1.55575 0.11113,-0.008 0.1905,-0.008 0.23019,-0.008 l 0.3175,-0.008 c 0.0318,0 0.11113,-0.008 0.23813,-0.0238 l 0.30162,-0.23019 h -1.016 l 0.3175,-1.28588 c -0.15081,0.0794 -0.21431,0.10319 -0.33337,0.15875 -0.0556,0.0318 -0.11907,0.0556 -0.18257,0.0873 -0.0318,0.0159 -0.0714,0.0318 -0.11112,0.0476 l -0.22225,0.99219 c -0.0714,0.008 -0.11906,0.008 -0.14288,0.008 h -0.1905 c -0.0159,0 -0.0556,0 -0.11906,0.008 -0.0873,0.0556 -0.0952,0.0556 -0.23019,0.16669 -0.0238,0.0159 -0.0635,0.0476 -0.11906,0.0873 h 0.1905 0.36513 0.17462 c -0.42069,1.76213 -0.42069,1.76213 -0.42069,2.00819 0,0.254 0.16669,0.53181 0.3175,0.53181 0.17463,0 0.71438,-0.33337 1.47638,-0.90487 z" />
      <path
         id="path1075"
         style="stroke-width:0.26458332px"
         d="m 107.68479,107.39693 c -0.59531,0.51594 -0.97631,0.73819 -1.27794,0.73819 -0.19843,0 -0.36512,-0.13494 -0.42068,-0.34132 -0.0318,-0.127 -0.0397,-0.21431 -0.0397,-0.4445 0.35719,-0.22225 0.59531,-0.38893 1.06362,-0.73818 0.42863,-0.32544 0.59532,-0.58738 0.59532,-0.94457 0,-0.27781 -0.17463,-0.4445 -0.45244,-0.4445 -0.17463,0 -0.30163,0.0397 -0.48419,0.14288 -0.30162,0.17462 -0.5715,0.38894 -0.73819,0.57944 -0.30162,0.36512 -0.5715,1.23825 -0.5715,1.88118 0,0.46832 0.24607,0.762 0.65088,0.762 0.46831,0 1.04775,-0.33337 1.67481,-0.96043 z m -1.7145,-0.33338 c 0.13494,-0.84931 0.50006,-1.50812 0.84138,-1.50812 0.13493,0 0.22225,0.13494 0.22225,0.32544 0,0.39687 -0.21432,0.635 -1.06363,1.18268 z" />
      <path
         id="path1077"
         style="stroke-width:0.26458332px"
         d="m 108.6678,108.33355 0.46831,-1.86531 c 0.99219,-0.62706 1.016,-0.635 1.12713,-0.635 0.0556,0 0.0873,0.0397 0.0873,0.10319 0,0.11906 -0.0635,0.42069 -0.29369,1.32556 -0.17462,0.70644 -0.20637,0.84138 -0.20637,0.99219 0,0.11112 0.0318,0.21431 0.11906,0.35719 0.36513,-0.16669 0.91281,-0.508 1.46844,-0.92075 l 0.0556,-0.22225 c -0.79375,0.45243 -0.8255,0.46831 -0.90487,0.46831 -0.0794,0 -0.127,-0.0873 -0.127,-0.21431 0,-0.16669 0.0556,-0.42863 0.20637,-0.97632 0.37306,-1.3335 0.37306,-1.3335 0.37306,-1.38906 0,-0.0873 -0.0556,-0.13494 -0.15875,-0.13494 -0.11906,0 -0.29368,0.0714 -0.57943,0.254 l -1.08744,0.67469 c 0.0714,-0.26194 0.1905,-0.762 0.1905,-0.8255 0,-0.0556 -0.0476,-0.10319 -0.10319,-0.10319 -0.0873,0 -0.65881,0.29369 -1.24619,0.64294 l -0.0476,0.20638 c 0.508,-0.23019 0.53975,-0.23813 0.61119,-0.23813 0.0556,0 0.0952,0.0476 0.0952,0.11113 0,0.16668 -0.15082,0.8255 -0.34925,1.54781 l -0.18257,0.64294 c -0.0159,0.0556 -0.0556,0.20637 -0.11112,0.42862 z" />
    </g>
  </g>
</svg>
