<?xml version="1.0" encoding="utf-8" standalone="no"?>
<!DOCTYPE svg PUBLIC "-//W3C//DTD SVG 1.1//EN"
  "http://www.w3.org/Graphics/SVG/1.1/DTD/svg11.dtd">
<!-- Created with matplotlib (https://matplotlib.org/) -->
<svg height="432pt" version="1.1" viewBox="0 0 576 432" width="576pt" xmlns="http://www.w3.org/2000/svg" xmlns:xlink="http://www.w3.org/1999/xlink">
 <defs>
  <style type="text/css">
*{stroke-linecap:butt;stroke-linejoin:round;}
  </style>
 </defs>
 <g id="figure_1">
  <g id="patch_1">
   <path d="M 0 432 
L 576 432 
L 576 0 
L 0 0 
z
" style="fill:#fefefe;"/>
  </g>
  <g id="axes_1">
   <g id="patch_2">
    <path d="M 79.11377 369.86399 
L 565.2 369.86399 
L 565.2 10.8 
L 79.11377 10.8 
z
" style="fill:#fefefe;"/>
   </g>
   <g id="PathCollection_1">
    <defs>
     <path d="M 0 3 
C 0.795609 3 1.55874 2.683901 2.12132 2.12132 
C 2.683901 1.55874 3 0.795609 3 0 
C 3 -0.795609 2.683901 -1.55874 2.12132 -2.12132 
C 1.55874 -2.683901 0.795609 -3 0 -3 
C -0.795609 -3 -1.55874 -2.683901 -2.12132 -2.12132 
C -2.683901 -1.55874 -3 -0.795609 -3 0 
C -3 0.795609 -2.683901 1.55874 -2.12132 2.12132 
C -1.55874 2.683901 -0.795609 3 0 3 
z
" id="m9f13a952c1" style="stroke:#87cefa;"/>
    </defs>
    <g clip-path="url(#p8487b0a42e)">
     <use style="fill:#87cefa;stroke:#87cefa;" x="162.932286" xlink:href="#m9f13a952c1" y="32.075665"/>
     <use style="fill:#87cefa;stroke:#87cefa;" x="295.645551" xlink:href="#m9f13a952c1" y="112.902272"/>
     <use style="fill:#87cefa;stroke:#87cefa;" x="352.802043" xlink:href="#m9f13a952c1" y="153.239493"/>
     <use style="fill:#87cefa;stroke:#87cefa;" x="485.515308" xlink:href="#m9f13a952c1" y="248.442675"/>
     <use style="fill:#87cefa;stroke:#87cefa;" x="542.6718" xlink:href="#m9f13a952c1" y="289.671985"/>
    </g>
   </g>
   <g id="PathCollection_2">
    <defs>
     <path d="M 0 3 
C 0.795609 3 1.55874 2.683901 2.12132 2.12132 
C 2.683901 1.55874 3 0.795609 3 0 
C 3 -0.795609 2.683901 -1.55874 2.12132 -2.12132 
C 1.55874 -2.683901 0.795609 -3 0 -3 
C -0.795609 -3 -1.55874 -2.683901 -2.12132 -2.12132 
C -2.683901 -1.55874 -3 -0.795609 -3 0 
C -3 0.795609 -2.683901 1.55874 -2.12132 2.12132 
C -1.55874 2.683901 -0.795609 3 0 3 
z
" id="me07f37f3b9" style="stroke:#1e90ff;"/>
    </defs>
    <g clip-path="url(#p8487b0a42e)">
     <use style="fill:#1e90ff;stroke:#1e90ff;" x="162.932286" xlink:href="#me07f37f3b9" y="89.755943"/>
     <use style="fill:#1e90ff;stroke:#1e90ff;" x="295.645551" xlink:href="#me07f37f3b9" y="176.327336"/>
     <use style="fill:#1e90ff;stroke:#1e90ff;" x="352.802043" xlink:href="#me07f37f3b9" y="217.854728"/>
     <use style="fill:#1e90ff;stroke:#1e90ff;" x="485.515308" xlink:href="#me07f37f3b9" y="314.016659"/>
     <use style="fill:#1e90ff;stroke:#1e90ff;" x="542.6718" xlink:href="#me07f37f3b9" y="355.28093"/>
    </g>
   </g>
   <g id="matplotlib.axis_1">
    <g id="xtick_1">
     <g id="line2d_1">
      <defs>
       <path d="M 0 0 
L 0 -7 
" id="mf53f2e85a0" style="stroke:#0a0a0a;stroke-width:0.8;"/>
      </defs>
      <g>
       <use style="fill:#0a0a0a;stroke:#0a0a0a;stroke-width:0.8;" x="162.932286" xlink:href="#mf53f2e85a0" y="369.86399"/>
      </g>
     </g>
     <g id="line2d_2">
      <defs>
       <path d="M 0 0 
L 0 7 
" id="meeaf4f6976" style="stroke:#0a0a0a;stroke-width:0.8;"/>
      </defs>
      <g>
       <use style="fill:#0a0a0a;stroke:#0a0a0a;stroke-width:0.8;" x="162.932286" xlink:href="#meeaf4f6976" y="10.8"/>
      </g>
     </g>
     <g id="text_1">
      <!-- $10^{1}$ -->
      <defs>
       <path d="M 26.59375 63.40625 
C 26.59375 65.5 26.5 65.5 25.09375 65.5 
C 21.203125 61.1875 15.296875 59.796875 9.703125 59.796875 
C 9.40625 59.796875 8.90625 59.796875 8.796875 59.5 
C 8.703125 59.296875 8.703125 59.09375 8.703125 57 
C 11.796875 57 17 57.59375 21 59.984375 
L 21 7.203125 
C 21 3.6875 20.796875 2.5 12.203125 2.5 
L 9.203125 2.5 
L 9.203125 0 
C 14 0 19 0 23.796875 0 
C 28.59375 0 33.59375 0 38.40625 0 
L 38.40625 2.5 
L 35.40625 2.5 
C 26.796875 2.5 26.59375 3.59375 26.59375 7.15625 
z
" id="CMR17-49"/>
       <path d="M 42 31.640625 
C 42 37.75 41.90625 48.125 37.703125 56.109375 
C 34 63.109375 28.09375 65.59375 22.90625 65.59375 
C 18.09375 65.59375 12 63.40625 8.203125 56.203125 
C 4.203125 48.71875 3.796875 39.4375 3.796875 31.640625 
C 3.796875 25.953125 3.90625 17.28125 7 9.671875 
C 11.296875 -0.609375 19 -2 22.90625 -2 
C 27.5 -2 34.5 -0.109375 38.59375 9.375 
C 41.59375 16.28125 42 24.359375 42 31.640625 
z
M 22.90625 -0.40625 
C 16.5 -0.40625 12.703125 5.078125 11.296875 12.6875 
C 10.203125 18.5625 10.203125 27.15625 10.203125 32.75 
C 10.203125 40.4375 10.203125 46.828125 11.5 52.921875 
C 13.40625 61.390625 19 64 22.90625 64 
C 27 64 32.296875 61.296875 34.203125 53.125 
C 35.5 47.4375 35.59375 40.734375 35.59375 32.75 
C 35.59375 26.25 35.59375 18.265625 34.40625 12.375 
C 32.296875 1.484375 26.40625 -0.40625 22.90625 -0.40625 
z
" id="CMR17-48"/>
      </defs>
      <g style="fill:#0a0a0a;" transform="translate(151.342831 392.36399)scale(0.18 -0.18)">
       <use transform="scale(0.996264)" xlink:href="#CMR17-49"/>
       <use transform="translate(45.690477 0)scale(0.996264)" xlink:href="#CMR17-48"/>
       <use transform="translate(91.380954 36.153639)scale(0.697382)" xlink:href="#CMR17-49"/>
      </g>
     </g>
    </g>
    <g id="xtick_2">
     <g id="line2d_3">
      <g>
       <use style="fill:#0a0a0a;stroke:#0a0a0a;stroke-width:0.8;" x="352.802043" xlink:href="#mf53f2e85a0" y="369.86399"/>
      </g>
     </g>
     <g id="line2d_4">
      <g>
       <use style="fill:#0a0a0a;stroke:#0a0a0a;stroke-width:0.8;" x="352.802043" xlink:href="#meeaf4f6976" y="10.8"/>
      </g>
     </g>
     <g id="text_2">
      <!-- $10^{2}$ -->
      <defs>
       <path d="M 41.703125 15.453125 
L 39.90625 15.453125 
C 38.90625 8.375 38.09375 7.171875 37.703125 6.5625 
C 37.203125 5.765625 30 5.765625 28.59375 5.765625 
L 9.40625 5.765625 
C 13 9.671875 20 16.75 28.5 24.953125 
C 34.59375 30.734375 41.703125 37.53125 41.703125 47.421875 
C 41.703125 59.21875 32.296875 66 21.796875 66 
C 10.796875 66 4.09375 56.3125 4.09375 47.34375 
C 4.09375 43.4375 7 42.9375 8.203125 42.9375 
C 9.203125 42.9375 12.203125 43.546875 12.203125 47.03125 
C 12.203125 50.109375 9.59375 51 8.203125 51 
C 7.59375 51 7 50.90625 6.59375 50.703125 
C 8.5 59.21875 14.296875 63.40625 20.40625 63.40625 
C 29.09375 63.40625 34.796875 56.515625 34.796875 47.421875 
C 34.796875 38.734375 29.703125 31.25 24 24.75 
L 4.09375 2.28125 
L 4.09375 0 
L 39.296875 0 
z
" id="CMR17-50"/>
      </defs>
      <g style="fill:#0a0a0a;" transform="translate(341.212588 392.36399)scale(0.18 -0.18)">
       <use transform="scale(0.996264)" xlink:href="#CMR17-49"/>
       <use transform="translate(45.690477 0)scale(0.996264)" xlink:href="#CMR17-48"/>
       <use transform="translate(91.380954 36.153639)scale(0.697382)" xlink:href="#CMR17-50"/>
      </g>
     </g>
    </g>
    <g id="xtick_3">
     <g id="line2d_5">
      <g>
       <use style="fill:#0a0a0a;stroke:#0a0a0a;stroke-width:0.8;" x="542.6718" xlink:href="#mf53f2e85a0" y="369.86399"/>
      </g>
     </g>
     <g id="line2d_6">
      <g>
       <use style="fill:#0a0a0a;stroke:#0a0a0a;stroke-width:0.8;" x="542.6718" xlink:href="#meeaf4f6976" y="10.8"/>
      </g>
     </g>
     <g id="text_3">
      <!-- $10^{3}$ -->
      <defs>
       <path d="M 22.09375 33.703125 
C 31 33.703125 34.90625 25.96875 34.90625 17.03125 
C 34.90625 5 28.5 0.390625 22.703125 0.390625 
C 17.40625 0.390625 8.796875 3.03125 6.09375 10.828125 
C 6.59375 10.625 7.09375 10.625 7.59375 10.625 
C 10 10.625 11.796875 12.21875 11.796875 14.8125 
C 11.796875 17.703125 9.59375 19 7.59375 19 
C 5.90625 19 3.296875 18.203125 3.296875 14.46875 
C 3.296875 5.234375 12.296875 -2 22.90625 -2 
C 34 -2 42.5 6.71875 42.5 16.953125 
C 42.5 26.671875 34.5 33.703125 25 34.796875 
C 32.59375 36.375 39.90625 43.0625 39.90625 52.015625 
C 39.90625 59.6875 32 65.296875 23 65.296875 
C 13.90625 65.296875 5.90625 59.828125 5.90625 52.015625 
C 5.90625 48.59375 8.5 48 9.796875 48 
C 11.90625 48 13.703125 49.296875 13.703125 51.890625 
C 13.703125 54.46875 11.90625 55.765625 9.796875 55.765625 
C 9.40625 55.765625 8.90625 55.765625 8.5 55.578125 
C 11.40625 61.859375 19.296875 63 22.796875 63 
C 26.296875 63 32.90625 61.328125 32.90625 51.875 
C 32.90625 49.109375 32.5 44.1875 29.09375 39.84375 
C 26.09375 36 22.703125 36 19.40625 35.6875 
C 18.90625 35.6875 16.59375 35.453125 16.203125 35.453125 
C 15.5 35.359375 15.09375 35.265625 15.09375 34.5 
C 15.09375 33.796875 15.203125 33.703125 17.203125 33.703125 
z
" id="CMR17-51"/>
      </defs>
      <g style="fill:#0a0a0a;" transform="translate(531.082345 392.36399)scale(0.18 -0.18)">
       <use transform="scale(0.996264)" xlink:href="#CMR17-49"/>
       <use transform="translate(45.690477 0)scale(0.996264)" xlink:href="#CMR17-48"/>
       <use transform="translate(91.380954 36.153639)scale(0.697382)" xlink:href="#CMR17-51"/>
      </g>
     </g>
    </g>
    <g id="xtick_4">
     <g id="line2d_7">
      <defs>
       <path d="M 0 0 
L 0 -4 
" id="mb2041f6487" style="stroke:#0a0a0a;stroke-width:0.6;"/>
      </defs>
      <g>
       <use style="fill:#0a0a0a;stroke:#0a0a0a;stroke-width:0.6;" x="87.375513" xlink:href="#mb2041f6487" y="369.86399"/>
      </g>
     </g>
     <g id="line2d_8">
      <defs>
       <path d="M 0 0 
L 0 4 
" id="ma4a6b39c51" style="stroke:#0a0a0a;stroke-width:0.6;"/>
      </defs>
      <g>
       <use style="fill:#0a0a0a;stroke:#0a0a0a;stroke-width:0.6;" x="87.375513" xlink:href="#ma4a6b39c51" y="10.8"/>
      </g>
     </g>
    </g>
    <g id="xtick_5">
     <g id="line2d_9">
      <g>
       <use style="fill:#0a0a0a;stroke:#0a0a0a;stroke-width:0.6;" x="105.775794" xlink:href="#mb2041f6487" y="369.86399"/>
      </g>
     </g>
     <g id="line2d_10">
      <g>
       <use style="fill:#0a0a0a;stroke:#0a0a0a;stroke-width:0.6;" x="105.775794" xlink:href="#ma4a6b39c51" y="10.8"/>
      </g>
     </g>
    </g>
    <g id="xtick_6">
     <g id="line2d_11">
      <g>
       <use style="fill:#0a0a0a;stroke:#0a0a0a;stroke-width:0.6;" x="120.809918" xlink:href="#mb2041f6487" y="369.86399"/>
      </g>
     </g>
     <g id="line2d_12">
      <g>
       <use style="fill:#0a0a0a;stroke:#0a0a0a;stroke-width:0.6;" x="120.809918" xlink:href="#ma4a6b39c51" y="10.8"/>
      </g>
     </g>
    </g>
    <g id="xtick_7">
     <g id="line2d_13">
      <g>
       <use style="fill:#0a0a0a;stroke:#0a0a0a;stroke-width:0.6;" x="133.521089" xlink:href="#mb2041f6487" y="369.86399"/>
      </g>
     </g>
     <g id="line2d_14">
      <g>
       <use style="fill:#0a0a0a;stroke:#0a0a0a;stroke-width:0.6;" x="133.521089" xlink:href="#ma4a6b39c51" y="10.8"/>
      </g>
     </g>
    </g>
    <g id="xtick_8">
     <g id="line2d_15">
      <g>
       <use style="fill:#0a0a0a;stroke:#0a0a0a;stroke-width:0.6;" x="144.532006" xlink:href="#mb2041f6487" y="369.86399"/>
      </g>
     </g>
     <g id="line2d_16">
      <g>
       <use style="fill:#0a0a0a;stroke:#0a0a0a;stroke-width:0.6;" x="144.532006" xlink:href="#ma4a6b39c51" y="10.8"/>
      </g>
     </g>
    </g>
    <g id="xtick_9">
     <g id="line2d_17">
      <g>
       <use style="fill:#0a0a0a;stroke:#0a0a0a;stroke-width:0.6;" x="154.244323" xlink:href="#mb2041f6487" y="369.86399"/>
      </g>
     </g>
     <g id="line2d_18">
      <g>
       <use style="fill:#0a0a0a;stroke:#0a0a0a;stroke-width:0.6;" x="154.244323" xlink:href="#ma4a6b39c51" y="10.8"/>
      </g>
     </g>
    </g>
    <g id="xtick_10">
     <g id="line2d_19">
      <g>
       <use style="fill:#0a0a0a;stroke:#0a0a0a;stroke-width:0.6;" x="220.088778" xlink:href="#mb2041f6487" y="369.86399"/>
      </g>
     </g>
     <g id="line2d_20">
      <g>
       <use style="fill:#0a0a0a;stroke:#0a0a0a;stroke-width:0.6;" x="220.088778" xlink:href="#ma4a6b39c51" y="10.8"/>
      </g>
     </g>
    </g>
    <g id="xtick_11">
     <g id="line2d_21">
      <g>
       <use style="fill:#0a0a0a;stroke:#0a0a0a;stroke-width:0.6;" x="253.523183" xlink:href="#mb2041f6487" y="369.86399"/>
      </g>
     </g>
     <g id="line2d_22">
      <g>
       <use style="fill:#0a0a0a;stroke:#0a0a0a;stroke-width:0.6;" x="253.523183" xlink:href="#ma4a6b39c51" y="10.8"/>
      </g>
     </g>
    </g>
    <g id="xtick_12">
     <g id="line2d_23">
      <g>
       <use style="fill:#0a0a0a;stroke:#0a0a0a;stroke-width:0.6;" x="277.24527" xlink:href="#mb2041f6487" y="369.86399"/>
      </g>
     </g>
     <g id="line2d_24">
      <g>
       <use style="fill:#0a0a0a;stroke:#0a0a0a;stroke-width:0.6;" x="277.24527" xlink:href="#ma4a6b39c51" y="10.8"/>
      </g>
     </g>
    </g>
    <g id="xtick_13">
     <g id="line2d_25">
      <g>
       <use style="fill:#0a0a0a;stroke:#0a0a0a;stroke-width:0.6;" x="295.645551" xlink:href="#mb2041f6487" y="369.86399"/>
      </g>
     </g>
     <g id="line2d_26">
      <g>
       <use style="fill:#0a0a0a;stroke:#0a0a0a;stroke-width:0.6;" x="295.645551" xlink:href="#ma4a6b39c51" y="10.8"/>
      </g>
     </g>
    </g>
    <g id="xtick_14">
     <g id="line2d_27">
      <g>
       <use style="fill:#0a0a0a;stroke:#0a0a0a;stroke-width:0.6;" x="310.679675" xlink:href="#mb2041f6487" y="369.86399"/>
      </g>
     </g>
     <g id="line2d_28">
      <g>
       <use style="fill:#0a0a0a;stroke:#0a0a0a;stroke-width:0.6;" x="310.679675" xlink:href="#ma4a6b39c51" y="10.8"/>
      </g>
     </g>
    </g>
    <g id="xtick_15">
     <g id="line2d_29">
      <g>
       <use style="fill:#0a0a0a;stroke:#0a0a0a;stroke-width:0.6;" x="323.390846" xlink:href="#mb2041f6487" y="369.86399"/>
      </g>
     </g>
     <g id="line2d_30">
      <g>
       <use style="fill:#0a0a0a;stroke:#0a0a0a;stroke-width:0.6;" x="323.390846" xlink:href="#ma4a6b39c51" y="10.8"/>
      </g>
     </g>
    </g>
    <g id="xtick_16">
     <g id="line2d_31">
      <g>
       <use style="fill:#0a0a0a;stroke:#0a0a0a;stroke-width:0.6;" x="334.401763" xlink:href="#mb2041f6487" y="369.86399"/>
      </g>
     </g>
     <g id="line2d_32">
      <g>
       <use style="fill:#0a0a0a;stroke:#0a0a0a;stroke-width:0.6;" x="334.401763" xlink:href="#ma4a6b39c51" y="10.8"/>
      </g>
     </g>
    </g>
    <g id="xtick_17">
     <g id="line2d_33">
      <g>
       <use style="fill:#0a0a0a;stroke:#0a0a0a;stroke-width:0.6;" x="344.11408" xlink:href="#mb2041f6487" y="369.86399"/>
      </g>
     </g>
     <g id="line2d_34">
      <g>
       <use style="fill:#0a0a0a;stroke:#0a0a0a;stroke-width:0.6;" x="344.11408" xlink:href="#ma4a6b39c51" y="10.8"/>
      </g>
     </g>
    </g>
    <g id="xtick_18">
     <g id="line2d_35">
      <g>
       <use style="fill:#0a0a0a;stroke:#0a0a0a;stroke-width:0.6;" x="409.958535" xlink:href="#mb2041f6487" y="369.86399"/>
      </g>
     </g>
     <g id="line2d_36">
      <g>
       <use style="fill:#0a0a0a;stroke:#0a0a0a;stroke-width:0.6;" x="409.958535" xlink:href="#ma4a6b39c51" y="10.8"/>
      </g>
     </g>
    </g>
    <g id="xtick_19">
     <g id="line2d_37">
      <g>
       <use style="fill:#0a0a0a;stroke:#0a0a0a;stroke-width:0.6;" x="443.39294" xlink:href="#mb2041f6487" y="369.86399"/>
      </g>
     </g>
     <g id="line2d_38">
      <g>
       <use style="fill:#0a0a0a;stroke:#0a0a0a;stroke-width:0.6;" x="443.39294" xlink:href="#ma4a6b39c51" y="10.8"/>
      </g>
     </g>
    </g>
    <g id="xtick_20">
     <g id="line2d_39">
      <g>
       <use style="fill:#0a0a0a;stroke:#0a0a0a;stroke-width:0.6;" x="467.115027" xlink:href="#mb2041f6487" y="369.86399"/>
      </g>
     </g>
     <g id="line2d_40">
      <g>
       <use style="fill:#0a0a0a;stroke:#0a0a0a;stroke-width:0.6;" x="467.115027" xlink:href="#ma4a6b39c51" y="10.8"/>
      </g>
     </g>
    </g>
    <g id="xtick_21">
     <g id="line2d_41">
      <g>
       <use style="fill:#0a0a0a;stroke:#0a0a0a;stroke-width:0.6;" x="485.515308" xlink:href="#mb2041f6487" y="369.86399"/>
      </g>
     </g>
     <g id="line2d_42">
      <g>
       <use style="fill:#0a0a0a;stroke:#0a0a0a;stroke-width:0.6;" x="485.515308" xlink:href="#ma4a6b39c51" y="10.8"/>
      </g>
     </g>
    </g>
    <g id="xtick_22">
     <g id="line2d_43">
      <g>
       <use style="fill:#0a0a0a;stroke:#0a0a0a;stroke-width:0.6;" x="500.549432" xlink:href="#mb2041f6487" y="369.86399"/>
      </g>
     </g>
     <g id="line2d_44">
      <g>
       <use style="fill:#0a0a0a;stroke:#0a0a0a;stroke-width:0.6;" x="500.549432" xlink:href="#ma4a6b39c51" y="10.8"/>
      </g>
     </g>
    </g>
    <g id="xtick_23">
     <g id="line2d_45">
      <g>
       <use style="fill:#0a0a0a;stroke:#0a0a0a;stroke-width:0.6;" x="513.260603" xlink:href="#mb2041f6487" y="369.86399"/>
      </g>
     </g>
     <g id="line2d_46">
      <g>
       <use style="fill:#0a0a0a;stroke:#0a0a0a;stroke-width:0.6;" x="513.260603" xlink:href="#ma4a6b39c51" y="10.8"/>
      </g>
     </g>
    </g>
    <g id="xtick_24">
     <g id="line2d_47">
      <g>
       <use style="fill:#0a0a0a;stroke:#0a0a0a;stroke-width:0.6;" x="524.27152" xlink:href="#mb2041f6487" y="369.86399"/>
      </g>
     </g>
     <g id="line2d_48">
      <g>
       <use style="fill:#0a0a0a;stroke:#0a0a0a;stroke-width:0.6;" x="524.27152" xlink:href="#ma4a6b39c51" y="10.8"/>
      </g>
     </g>
    </g>
    <g id="xtick_25">
     <g id="line2d_49">
      <g>
       <use style="fill:#0a0a0a;stroke:#0a0a0a;stroke-width:0.6;" x="533.983837" xlink:href="#mb2041f6487" y="369.86399"/>
      </g>
     </g>
     <g id="line2d_50">
      <g>
       <use style="fill:#0a0a0a;stroke:#0a0a0a;stroke-width:0.6;" x="533.983837" xlink:href="#ma4a6b39c51" y="10.8"/>
      </g>
     </g>
    </g>
    <g id="text_4">
     <!-- $N$ -->
     <defs>
      <path d="M 74 57.78125 
C 75.09375 62.09375 76.703125 65.09375 84.296875 65.09375 
C 84.59375 65.09375 85.796875 65.09375 85.796875 66.859375 
C 85.796875 68 84.90625 68 84.5 68 
C 82.5 68 77.40625 68 75.40625 68 
L 70.59375 68 
C 69.203125 68 67.40625 68 66 68 
C 65.40625 68 64.203125 68 64.203125 66.09375 
C 64.203125 65.09375 65 65.09375 65.703125 65.09375 
C 71.703125 65.09375 72.09375 62.796875 72.09375 60.984375 
C 72.09375 60.09375 72 59.78125 71.703125 58.390625 
L 60.40625 13.28125 
L 39 66.390625 
C 38.296875 68 38.203125 68 36 68 
L 23.796875 68 
C 21.796875 68 20.90625 68 20.90625 66.09375 
C 20.90625 65.09375 21.59375 65.09375 23.5 65.09375 
C 24 65.09375 29.90625 65.09375 29.90625 64.296875 
C 29.90625 64.09375 29.703125 63.296875 29.59375 63 
L 16.296875 9.921875 
C 15.09375 5 12.703125 2.90625 6.09375 2.90625 
C 5.59375 2.90625 4.59375 2.90625 4.59375 1.046875 
C 4.59375 0 5.59375 0 5.90625 0 
C 7.90625 0 13 0 15 0 
L 19.796875 0 
C 21.203125 0 22.90625 0 24.296875 0 
C 25 0 26.09375 0 26.09375 1.90625 
C 26.09375 2.8125 25.09375 2.90625 24.703125 2.90625 
C 21.40625 2.90625 18.203125 3.5 18.203125 7.09375 
C 18.203125 7.890625 18.40625 8.78125 18.59375 9.578125 
L 32.09375 63 
C 32.703125 62 32.703125 61.8125 33.09375 60.90625 
L 56.90625 1.796875 
C 57.40625 0.59375 57.59375 0 58.5 0 
C 59.5 0 59.59375 0.296875 60 2 
z
" id="CMMI12-78"/>
     </defs>
     <g style="fill:#0a0a0a;" transform="translate(311.49444 416.5318)scale(0.24 -0.24)">
      <use transform="scale(0.996264)" xlink:href="#CMMI12-78"/>
     </g>
    </g>
   </g>
   <g id="matplotlib.axis_2">
    <g id="ytick_1">
     <g id="line2d_51">
      <defs>
       <path d="M 0 0 
L 7 0 
" id="m20d9ef932a" style="stroke:#0a0a0a;stroke-width:0.8;"/>
      </defs>
      <g>
       <use style="fill:#0a0a0a;stroke:#0a0a0a;stroke-width:0.8;" x="79.11377" xlink:href="#m20d9ef932a" y="324.008591"/>
      </g>
     </g>
     <g id="line2d_52">
      <defs>
       <path d="M 0 0 
L -7 0 
" id="m3e15e4fd6d" style="stroke:#0a0a0a;stroke-width:0.8;"/>
      </defs>
      <g>
       <use style="fill:#0a0a0a;stroke:#0a0a0a;stroke-width:0.8;" x="565.2" xlink:href="#m3e15e4fd6d" y="324.008591"/>
      </g>
     </g>
     <g id="text_5">
      <!-- $10^{-5}$ -->
      <defs>
       <path d="M 65.90625 23 
C 67.59375 23 69.40625 23 69.40625 25 
C 69.40625 27 67.59375 27 65.90625 27 
L 11.796875 27 
C 10.09375 27 8.296875 27 8.296875 25 
C 8.296875 23 10.09375 23 11.796875 23 
z
" id="CMSY10-0"/>
       <path d="M 11.40625 57.6875 
C 12.40625 57.28125 16.5 56 20.703125 56 
C 30 56 35.09375 61.109375 38 64.0625 
C 38 64.953125 38 65.5 37.40625 65.5 
C 37.296875 65.5 37.09375 65.5 36.296875 65.046875 
C 32.796875 63.40625 28.703125 62.078125 23.703125 62.078125 
C 20.703125 62.078125 16.203125 62.484375 11.296875 64.671875 
C 10.203125 65.171875 10 65.171875 9.90625 65.171875 
C 9.40625 65.171875 9.296875 65.0625 9.296875 63.078125 
L 9.296875 34.421875 
C 9.296875 32.640625 9.296875 32.140625 10.296875 32.140625 
C 10.796875 32.140625 11 32.34375 11.5 33.03125 
C 14.703125 37.515625 19.09375 39.40625 24.09375 39.40625 
C 27.59375 39.40625 35.09375 37.21875 35.09375 20.140625 
C 35.09375 16.953125 35.09375 11.171875 32.09375 6.578125 
C 29.59375 2.484375 25.703125 0.390625 21.40625 0.390625 
C 14.796875 0.390625 8.09375 5 6.296875 12.71875 
C 6.703125 12.609375 7.5 12.421875 7.90625 12.421875 
C 9.203125 12.421875 11.703125 13.125 11.703125 16.21875 
C 11.703125 18.90625 9.796875 20 7.90625 20 
C 5.59375 20 4.09375 18.59375 4.09375 15.796875 
C 4.09375 7.09375 11 -2 21.59375 -2 
C 31.90625 -2 41.703125 6.875 41.703125 19.75 
C 41.703125 31.71875 33.90625 41 24.203125 41 
C 19.09375 41 14.796875 39.109375 11.40625 35.53125 
z
" id="CMR17-53"/>
      </defs>
      <g style="fill:#0a0a0a;" transform="translate(36.13487 330.258591)scale(0.18 -0.18)">
       <use transform="scale(0.996264)" xlink:href="#CMR17-49"/>
       <use transform="translate(45.690477 0)scale(0.996264)" xlink:href="#CMR17-48"/>
       <use transform="translate(91.380954 36.153639)scale(0.697382)" xlink:href="#CMSY10-0"/>
       <use transform="translate(145.621947 36.153639)scale(0.697382)" xlink:href="#CMR17-53"/>
      </g>
     </g>
    </g>
    <g id="ytick_2">
     <g id="line2d_53">
      <g>
       <use style="fill:#0a0a0a;stroke:#0a0a0a;stroke-width:0.8;" x="79.11377" xlink:href="#m20d9ef932a" y="255.392253"/>
      </g>
     </g>
     <g id="line2d_54">
      <g>
       <use style="fill:#0a0a0a;stroke:#0a0a0a;stroke-width:0.8;" x="565.2" xlink:href="#m3e15e4fd6d" y="255.392253"/>
      </g>
     </g>
     <g id="text_6">
      <!-- $10^{-4}$ -->
      <defs>
       <path d="M 33.59375 64.40625 
C 33.59375 66.5 33.5 66.5 31.703125 66.5 
L 2 19.59375 
L 2 17 
L 27.796875 17 
L 27.796875 7.140625 
C 27.796875 3.5 27.59375 2.5 20.59375 2.5 
L 18.703125 2.5 
L 18.703125 0 
C 21.90625 0 27.296875 0 30.703125 0 
C 34.09375 0 39.5 0 42.703125 0 
L 42.703125 2.5 
L 40.796875 2.5 
C 33.796875 2.5 33.59375 3.5 33.59375 7.140625 
L 33.59375 17 
L 43.796875 17 
L 43.796875 19.59375 
L 33.59375 19.59375 
z
M 28.09375 57.859375 
L 28.09375 19.59375 
L 4 19.59375 
z
" id="CMR17-52"/>
      </defs>
      <g style="fill:#0a0a0a;" transform="translate(36.13487 261.642253)scale(0.18 -0.18)">
       <use transform="scale(0.996264)" xlink:href="#CMR17-49"/>
       <use transform="translate(45.690477 0)scale(0.996264)" xlink:href="#CMR17-48"/>
       <use transform="translate(91.380954 36.153639)scale(0.697382)" xlink:href="#CMSY10-0"/>
       <use transform="translate(145.621947 36.153639)scale(0.697382)" xlink:href="#CMR17-52"/>
      </g>
     </g>
    </g>
    <g id="ytick_3">
     <g id="line2d_55">
      <g>
       <use style="fill:#0a0a0a;stroke:#0a0a0a;stroke-width:0.8;" x="79.11377" xlink:href="#m20d9ef932a" y="186.775915"/>
      </g>
     </g>
     <g id="line2d_56">
      <g>
       <use style="fill:#0a0a0a;stroke:#0a0a0a;stroke-width:0.8;" x="565.2" xlink:href="#m3e15e4fd6d" y="186.775915"/>
      </g>
     </g>
     <g id="text_7">
      <!-- $10^{-3}$ -->
      <g style="fill:#0a0a0a;" transform="translate(36.13487 193.025915)scale(0.18 -0.18)">
       <use transform="scale(0.996264)" xlink:href="#CMR17-49"/>
       <use transform="translate(45.690477 0)scale(0.996264)" xlink:href="#CMR17-48"/>
       <use transform="translate(91.380954 36.153639)scale(0.697382)" xlink:href="#CMSY10-0"/>
       <use transform="translate(145.621947 36.153639)scale(0.697382)" xlink:href="#CMR17-51"/>
      </g>
     </g>
    </g>
    <g id="ytick_4">
     <g id="line2d_57">
      <g>
       <use style="fill:#0a0a0a;stroke:#0a0a0a;stroke-width:0.8;" x="79.11377" xlink:href="#m20d9ef932a" y="118.159576"/>
      </g>
     </g>
     <g id="line2d_58">
      <g>
       <use style="fill:#0a0a0a;stroke:#0a0a0a;stroke-width:0.8;" x="565.2" xlink:href="#m3e15e4fd6d" y="118.159576"/>
      </g>
     </g>
     <g id="text_8">
      <!-- $10^{-2}$ -->
      <g style="fill:#0a0a0a;" transform="translate(36.13487 124.409576)scale(0.18 -0.18)">
       <use transform="scale(0.996264)" xlink:href="#CMR17-49"/>
       <use transform="translate(45.690477 0)scale(0.996264)" xlink:href="#CMR17-48"/>
       <use transform="translate(91.380954 36.153639)scale(0.697382)" xlink:href="#CMSY10-0"/>
       <use transform="translate(145.621947 36.153639)scale(0.697382)" xlink:href="#CMR17-50"/>
      </g>
     </g>
    </g>
    <g id="ytick_5">
     <g id="line2d_59">
      <g>
       <use style="fill:#0a0a0a;stroke:#0a0a0a;stroke-width:0.8;" x="79.11377" xlink:href="#m20d9ef932a" y="49.543238"/>
      </g>
     </g>
     <g id="line2d_60">
      <g>
       <use style="fill:#0a0a0a;stroke:#0a0a0a;stroke-width:0.8;" x="565.2" xlink:href="#m3e15e4fd6d" y="49.543238"/>
      </g>
     </g>
     <g id="text_9">
      <!-- $10^{-1}$ -->
      <g style="fill:#0a0a0a;" transform="translate(36.13487 55.793238)scale(0.18 -0.18)">
       <use transform="scale(0.996264)" xlink:href="#CMR17-49"/>
       <use transform="translate(45.690477 0)scale(0.996264)" xlink:href="#CMR17-48"/>
       <use transform="translate(91.380954 36.153639)scale(0.697382)" xlink:href="#CMSY10-0"/>
       <use transform="translate(145.621947 36.153639)scale(0.697382)" xlink:href="#CMR17-49"/>
      </g>
     </g>
    </g>
    <g id="ytick_6">
     <g id="line2d_61">
      <defs>
       <path d="M 0 0 
L 4 0 
" id="mcde413c146" style="stroke:#0a0a0a;stroke-width:0.6;"/>
      </defs>
      <g>
       <use style="fill:#0a0a0a;stroke:#0a0a0a;stroke-width:0.6;" x="79.11377" xlink:href="#mcde413c146" y="359.886616"/>
      </g>
     </g>
     <g id="line2d_62">
      <defs>
       <path d="M 0 0 
L -4 0 
" id="mbb32689092" style="stroke:#0a0a0a;stroke-width:0.6;"/>
      </defs>
      <g>
       <use style="fill:#0a0a0a;stroke:#0a0a0a;stroke-width:0.6;" x="565.2" xlink:href="#mbb32689092" y="359.886616"/>
      </g>
     </g>
    </g>
    <g id="ytick_7">
     <g id="line2d_63">
      <g>
       <use style="fill:#0a0a0a;stroke:#0a0a0a;stroke-width:0.6;" x="79.11377" xlink:href="#mcde413c146" y="351.313778"/>
      </g>
     </g>
     <g id="line2d_64">
      <g>
       <use style="fill:#0a0a0a;stroke:#0a0a0a;stroke-width:0.6;" x="565.2" xlink:href="#mbb32689092" y="351.313778"/>
      </g>
     </g>
    </g>
    <g id="ytick_8">
     <g id="line2d_65">
      <g>
       <use style="fill:#0a0a0a;stroke:#0a0a0a;stroke-width:0.6;" x="79.11377" xlink:href="#mcde413c146" y="344.664168"/>
      </g>
     </g>
     <g id="line2d_66">
      <g>
       <use style="fill:#0a0a0a;stroke:#0a0a0a;stroke-width:0.6;" x="565.2" xlink:href="#mbb32689092" y="344.664168"/>
      </g>
     </g>
    </g>
    <g id="ytick_9">
     <g id="line2d_67">
      <g>
       <use style="fill:#0a0a0a;stroke:#0a0a0a;stroke-width:0.6;" x="79.11377" xlink:href="#mcde413c146" y="339.23104"/>
      </g>
     </g>
     <g id="line2d_68">
      <g>
       <use style="fill:#0a0a0a;stroke:#0a0a0a;stroke-width:0.6;" x="565.2" xlink:href="#mbb32689092" y="339.23104"/>
      </g>
     </g>
    </g>
    <g id="ytick_10">
     <g id="line2d_69">
      <g>
       <use style="fill:#0a0a0a;stroke:#0a0a0a;stroke-width:0.6;" x="79.11377" xlink:href="#mcde413c146" y="334.637397"/>
      </g>
     </g>
     <g id="line2d_70">
      <g>
       <use style="fill:#0a0a0a;stroke:#0a0a0a;stroke-width:0.6;" x="565.2" xlink:href="#mbb32689092" y="334.637397"/>
      </g>
     </g>
    </g>
    <g id="ytick_11">
     <g id="line2d_71">
      <g>
       <use style="fill:#0a0a0a;stroke:#0a0a0a;stroke-width:0.6;" x="79.11377" xlink:href="#mcde413c146" y="330.658202"/>
      </g>
     </g>
     <g id="line2d_72">
      <g>
       <use style="fill:#0a0a0a;stroke:#0a0a0a;stroke-width:0.6;" x="565.2" xlink:href="#mbb32689092" y="330.658202"/>
      </g>
     </g>
    </g>
    <g id="ytick_12">
     <g id="line2d_73">
      <g>
       <use style="fill:#0a0a0a;stroke:#0a0a0a;stroke-width:0.6;" x="79.11377" xlink:href="#mcde413c146" y="327.148303"/>
      </g>
     </g>
     <g id="line2d_74">
      <g>
       <use style="fill:#0a0a0a;stroke:#0a0a0a;stroke-width:0.6;" x="565.2" xlink:href="#mbb32689092" y="327.148303"/>
      </g>
     </g>
    </g>
    <g id="ytick_13">
     <g id="line2d_75">
      <g>
       <use style="fill:#0a0a0a;stroke:#0a0a0a;stroke-width:0.6;" x="79.11377" xlink:href="#mcde413c146" y="303.353015"/>
      </g>
     </g>
     <g id="line2d_76">
      <g>
       <use style="fill:#0a0a0a;stroke:#0a0a0a;stroke-width:0.6;" x="565.2" xlink:href="#mbb32689092" y="303.353015"/>
      </g>
     </g>
    </g>
    <g id="ytick_14">
     <g id="line2d_77">
      <g>
       <use style="fill:#0a0a0a;stroke:#0a0a0a;stroke-width:0.6;" x="79.11377" xlink:href="#mcde413c146" y="291.270278"/>
      </g>
     </g>
     <g id="line2d_78">
      <g>
       <use style="fill:#0a0a0a;stroke:#0a0a0a;stroke-width:0.6;" x="565.2" xlink:href="#mbb32689092" y="291.270278"/>
      </g>
     </g>
    </g>
    <g id="ytick_15">
     <g id="line2d_79">
      <g>
       <use style="fill:#0a0a0a;stroke:#0a0a0a;stroke-width:0.6;" x="79.11377" xlink:href="#mcde413c146" y="282.697439"/>
      </g>
     </g>
     <g id="line2d_80">
      <g>
       <use style="fill:#0a0a0a;stroke:#0a0a0a;stroke-width:0.6;" x="565.2" xlink:href="#mbb32689092" y="282.697439"/>
      </g>
     </g>
    </g>
    <g id="ytick_16">
     <g id="line2d_81">
      <g>
       <use style="fill:#0a0a0a;stroke:#0a0a0a;stroke-width:0.6;" x="79.11377" xlink:href="#mcde413c146" y="276.047829"/>
      </g>
     </g>
     <g id="line2d_82">
      <g>
       <use style="fill:#0a0a0a;stroke:#0a0a0a;stroke-width:0.6;" x="565.2" xlink:href="#mbb32689092" y="276.047829"/>
      </g>
     </g>
    </g>
    <g id="ytick_17">
     <g id="line2d_83">
      <g>
       <use style="fill:#0a0a0a;stroke:#0a0a0a;stroke-width:0.6;" x="79.11377" xlink:href="#mcde413c146" y="270.614702"/>
      </g>
     </g>
     <g id="line2d_84">
      <g>
       <use style="fill:#0a0a0a;stroke:#0a0a0a;stroke-width:0.6;" x="565.2" xlink:href="#mbb32689092" y="270.614702"/>
      </g>
     </g>
    </g>
    <g id="ytick_18">
     <g id="line2d_85">
      <g>
       <use style="fill:#0a0a0a;stroke:#0a0a0a;stroke-width:0.6;" x="79.11377" xlink:href="#mcde413c146" y="266.021058"/>
      </g>
     </g>
     <g id="line2d_86">
      <g>
       <use style="fill:#0a0a0a;stroke:#0a0a0a;stroke-width:0.6;" x="565.2" xlink:href="#mbb32689092" y="266.021058"/>
      </g>
     </g>
    </g>
    <g id="ytick_19">
     <g id="line2d_87">
      <g>
       <use style="fill:#0a0a0a;stroke:#0a0a0a;stroke-width:0.6;" x="79.11377" xlink:href="#mcde413c146" y="262.041863"/>
      </g>
     </g>
     <g id="line2d_88">
      <g>
       <use style="fill:#0a0a0a;stroke:#0a0a0a;stroke-width:0.6;" x="565.2" xlink:href="#mbb32689092" y="262.041863"/>
      </g>
     </g>
    </g>
    <g id="ytick_20">
     <g id="line2d_89">
      <g>
       <use style="fill:#0a0a0a;stroke:#0a0a0a;stroke-width:0.6;" x="79.11377" xlink:href="#mcde413c146" y="258.531965"/>
      </g>
     </g>
     <g id="line2d_90">
      <g>
       <use style="fill:#0a0a0a;stroke:#0a0a0a;stroke-width:0.6;" x="565.2" xlink:href="#mbb32689092" y="258.531965"/>
      </g>
     </g>
    </g>
    <g id="ytick_21">
     <g id="line2d_91">
      <g>
       <use style="fill:#0a0a0a;stroke:#0a0a0a;stroke-width:0.6;" x="79.11377" xlink:href="#mcde413c146" y="234.736677"/>
      </g>
     </g>
     <g id="line2d_92">
      <g>
       <use style="fill:#0a0a0a;stroke:#0a0a0a;stroke-width:0.6;" x="565.2" xlink:href="#mbb32689092" y="234.736677"/>
      </g>
     </g>
    </g>
    <g id="ytick_22">
     <g id="line2d_93">
      <g>
       <use style="fill:#0a0a0a;stroke:#0a0a0a;stroke-width:0.6;" x="79.11377" xlink:href="#mcde413c146" y="222.65394"/>
      </g>
     </g>
     <g id="line2d_94">
      <g>
       <use style="fill:#0a0a0a;stroke:#0a0a0a;stroke-width:0.6;" x="565.2" xlink:href="#mbb32689092" y="222.65394"/>
      </g>
     </g>
    </g>
    <g id="ytick_23">
     <g id="line2d_95">
      <g>
       <use style="fill:#0a0a0a;stroke:#0a0a0a;stroke-width:0.6;" x="79.11377" xlink:href="#mcde413c146" y="214.081101"/>
      </g>
     </g>
     <g id="line2d_96">
      <g>
       <use style="fill:#0a0a0a;stroke:#0a0a0a;stroke-width:0.6;" x="565.2" xlink:href="#mbb32689092" y="214.081101"/>
      </g>
     </g>
    </g>
    <g id="ytick_24">
     <g id="line2d_97">
      <g>
       <use style="fill:#0a0a0a;stroke:#0a0a0a;stroke-width:0.6;" x="79.11377" xlink:href="#mcde413c146" y="207.431491"/>
      </g>
     </g>
     <g id="line2d_98">
      <g>
       <use style="fill:#0a0a0a;stroke:#0a0a0a;stroke-width:0.6;" x="565.2" xlink:href="#mbb32689092" y="207.431491"/>
      </g>
     </g>
    </g>
    <g id="ytick_25">
     <g id="line2d_99">
      <g>
       <use style="fill:#0a0a0a;stroke:#0a0a0a;stroke-width:0.6;" x="79.11377" xlink:href="#mcde413c146" y="201.998364"/>
      </g>
     </g>
     <g id="line2d_100">
      <g>
       <use style="fill:#0a0a0a;stroke:#0a0a0a;stroke-width:0.6;" x="565.2" xlink:href="#mbb32689092" y="201.998364"/>
      </g>
     </g>
    </g>
    <g id="ytick_26">
     <g id="line2d_101">
      <g>
       <use style="fill:#0a0a0a;stroke:#0a0a0a;stroke-width:0.6;" x="79.11377" xlink:href="#mcde413c146" y="197.40472"/>
      </g>
     </g>
     <g id="line2d_102">
      <g>
       <use style="fill:#0a0a0a;stroke:#0a0a0a;stroke-width:0.6;" x="565.2" xlink:href="#mbb32689092" y="197.40472"/>
      </g>
     </g>
    </g>
    <g id="ytick_27">
     <g id="line2d_103">
      <g>
       <use style="fill:#0a0a0a;stroke:#0a0a0a;stroke-width:0.6;" x="79.11377" xlink:href="#mcde413c146" y="193.425525"/>
      </g>
     </g>
     <g id="line2d_104">
      <g>
       <use style="fill:#0a0a0a;stroke:#0a0a0a;stroke-width:0.6;" x="565.2" xlink:href="#mbb32689092" y="193.425525"/>
      </g>
     </g>
    </g>
    <g id="ytick_28">
     <g id="line2d_105">
      <g>
       <use style="fill:#0a0a0a;stroke:#0a0a0a;stroke-width:0.6;" x="79.11377" xlink:href="#mcde413c146" y="189.915626"/>
      </g>
     </g>
     <g id="line2d_106">
      <g>
       <use style="fill:#0a0a0a;stroke:#0a0a0a;stroke-width:0.6;" x="565.2" xlink:href="#mbb32689092" y="189.915626"/>
      </g>
     </g>
    </g>
    <g id="ytick_29">
     <g id="line2d_107">
      <g>
       <use style="fill:#0a0a0a;stroke:#0a0a0a;stroke-width:0.6;" x="79.11377" xlink:href="#mcde413c146" y="166.120339"/>
      </g>
     </g>
     <g id="line2d_108">
      <g>
       <use style="fill:#0a0a0a;stroke:#0a0a0a;stroke-width:0.6;" x="565.2" xlink:href="#mbb32689092" y="166.120339"/>
      </g>
     </g>
    </g>
    <g id="ytick_30">
     <g id="line2d_109">
      <g>
       <use style="fill:#0a0a0a;stroke:#0a0a0a;stroke-width:0.6;" x="79.11377" xlink:href="#mcde413c146" y="154.037601"/>
      </g>
     </g>
     <g id="line2d_110">
      <g>
       <use style="fill:#0a0a0a;stroke:#0a0a0a;stroke-width:0.6;" x="565.2" xlink:href="#mbb32689092" y="154.037601"/>
      </g>
     </g>
    </g>
    <g id="ytick_31">
     <g id="line2d_111">
      <g>
       <use style="fill:#0a0a0a;stroke:#0a0a0a;stroke-width:0.6;" x="79.11377" xlink:href="#mcde413c146" y="145.464763"/>
      </g>
     </g>
     <g id="line2d_112">
      <g>
       <use style="fill:#0a0a0a;stroke:#0a0a0a;stroke-width:0.6;" x="565.2" xlink:href="#mbb32689092" y="145.464763"/>
      </g>
     </g>
    </g>
    <g id="ytick_32">
     <g id="line2d_113">
      <g>
       <use style="fill:#0a0a0a;stroke:#0a0a0a;stroke-width:0.6;" x="79.11377" xlink:href="#mcde413c146" y="138.815152"/>
      </g>
     </g>
     <g id="line2d_114">
      <g>
       <use style="fill:#0a0a0a;stroke:#0a0a0a;stroke-width:0.6;" x="565.2" xlink:href="#mbb32689092" y="138.815152"/>
      </g>
     </g>
    </g>
    <g id="ytick_33">
     <g id="line2d_115">
      <g>
       <use style="fill:#0a0a0a;stroke:#0a0a0a;stroke-width:0.6;" x="79.11377" xlink:href="#mcde413c146" y="133.382025"/>
      </g>
     </g>
     <g id="line2d_116">
      <g>
       <use style="fill:#0a0a0a;stroke:#0a0a0a;stroke-width:0.6;" x="565.2" xlink:href="#mbb32689092" y="133.382025"/>
      </g>
     </g>
    </g>
    <g id="ytick_34">
     <g id="line2d_117">
      <g>
       <use style="fill:#0a0a0a;stroke:#0a0a0a;stroke-width:0.6;" x="79.11377" xlink:href="#mcde413c146" y="128.788382"/>
      </g>
     </g>
     <g id="line2d_118">
      <g>
       <use style="fill:#0a0a0a;stroke:#0a0a0a;stroke-width:0.6;" x="565.2" xlink:href="#mbb32689092" y="128.788382"/>
      </g>
     </g>
    </g>
    <g id="ytick_35">
     <g id="line2d_119">
      <g>
       <use style="fill:#0a0a0a;stroke:#0a0a0a;stroke-width:0.6;" x="79.11377" xlink:href="#mcde413c146" y="124.809187"/>
      </g>
     </g>
     <g id="line2d_120">
      <g>
       <use style="fill:#0a0a0a;stroke:#0a0a0a;stroke-width:0.6;" x="565.2" xlink:href="#mbb32689092" y="124.809187"/>
      </g>
     </g>
    </g>
    <g id="ytick_36">
     <g id="line2d_121">
      <g>
       <use style="fill:#0a0a0a;stroke:#0a0a0a;stroke-width:0.6;" x="79.11377" xlink:href="#mcde413c146" y="121.299288"/>
      </g>
     </g>
     <g id="line2d_122">
      <g>
       <use style="fill:#0a0a0a;stroke:#0a0a0a;stroke-width:0.6;" x="565.2" xlink:href="#mbb32689092" y="121.299288"/>
      </g>
     </g>
    </g>
    <g id="ytick_37">
     <g id="line2d_123">
      <g>
       <use style="fill:#0a0a0a;stroke:#0a0a0a;stroke-width:0.6;" x="79.11377" xlink:href="#mcde413c146" y="97.504"/>
      </g>
     </g>
     <g id="line2d_124">
      <g>
       <use style="fill:#0a0a0a;stroke:#0a0a0a;stroke-width:0.6;" x="565.2" xlink:href="#mbb32689092" y="97.504"/>
      </g>
     </g>
    </g>
    <g id="ytick_38">
     <g id="line2d_125">
      <g>
       <use style="fill:#0a0a0a;stroke:#0a0a0a;stroke-width:0.6;" x="79.11377" xlink:href="#mcde413c146" y="85.421263"/>
      </g>
     </g>
     <g id="line2d_126">
      <g>
       <use style="fill:#0a0a0a;stroke:#0a0a0a;stroke-width:0.6;" x="565.2" xlink:href="#mbb32689092" y="85.421263"/>
      </g>
     </g>
    </g>
    <g id="ytick_39">
     <g id="line2d_127">
      <g>
       <use style="fill:#0a0a0a;stroke:#0a0a0a;stroke-width:0.6;" x="79.11377" xlink:href="#mcde413c146" y="76.848424"/>
      </g>
     </g>
     <g id="line2d_128">
      <g>
       <use style="fill:#0a0a0a;stroke:#0a0a0a;stroke-width:0.6;" x="565.2" xlink:href="#mbb32689092" y="76.848424"/>
      </g>
     </g>
    </g>
    <g id="ytick_40">
     <g id="line2d_129">
      <g>
       <use style="fill:#0a0a0a;stroke:#0a0a0a;stroke-width:0.6;" x="79.11377" xlink:href="#mcde413c146" y="70.198814"/>
      </g>
     </g>
     <g id="line2d_130">
      <g>
       <use style="fill:#0a0a0a;stroke:#0a0a0a;stroke-width:0.6;" x="565.2" xlink:href="#mbb32689092" y="70.198814"/>
      </g>
     </g>
    </g>
    <g id="ytick_41">
     <g id="line2d_131">
      <g>
       <use style="fill:#0a0a0a;stroke:#0a0a0a;stroke-width:0.6;" x="79.11377" xlink:href="#mcde413c146" y="64.765687"/>
      </g>
     </g>
     <g id="line2d_132">
      <g>
       <use style="fill:#0a0a0a;stroke:#0a0a0a;stroke-width:0.6;" x="565.2" xlink:href="#mbb32689092" y="64.765687"/>
      </g>
     </g>
    </g>
    <g id="ytick_42">
     <g id="line2d_133">
      <g>
       <use style="fill:#0a0a0a;stroke:#0a0a0a;stroke-width:0.6;" x="79.11377" xlink:href="#mcde413c146" y="60.172043"/>
      </g>
     </g>
     <g id="line2d_134">
      <g>
       <use style="fill:#0a0a0a;stroke:#0a0a0a;stroke-width:0.6;" x="565.2" xlink:href="#mbb32689092" y="60.172043"/>
      </g>
     </g>
    </g>
    <g id="ytick_43">
     <g id="line2d_135">
      <g>
       <use style="fill:#0a0a0a;stroke:#0a0a0a;stroke-width:0.6;" x="79.11377" xlink:href="#mcde413c146" y="56.192848"/>
      </g>
     </g>
     <g id="line2d_136">
      <g>
       <use style="fill:#0a0a0a;stroke:#0a0a0a;stroke-width:0.6;" x="565.2" xlink:href="#mbb32689092" y="56.192848"/>
      </g>
     </g>
    </g>
    <g id="ytick_44">
     <g id="line2d_137">
      <g>
       <use style="fill:#0a0a0a;stroke:#0a0a0a;stroke-width:0.6;" x="79.11377" xlink:href="#mcde413c146" y="52.68295"/>
      </g>
     </g>
     <g id="line2d_138">
      <g>
       <use style="fill:#0a0a0a;stroke:#0a0a0a;stroke-width:0.6;" x="565.2" xlink:href="#mbb32689092" y="52.68295"/>
      </g>
     </g>
    </g>
    <g id="ytick_45">
     <g id="line2d_139">
      <g>
       <use style="fill:#0a0a0a;stroke:#0a0a0a;stroke-width:0.6;" x="79.11377" xlink:href="#mcde413c146" y="28.887662"/>
      </g>
     </g>
     <g id="line2d_140">
      <g>
       <use style="fill:#0a0a0a;stroke:#0a0a0a;stroke-width:0.6;" x="565.2" xlink:href="#mbb32689092" y="28.887662"/>
      </g>
     </g>
    </g>
    <g id="ytick_46">
     <g id="line2d_141">
      <g>
       <use style="fill:#0a0a0a;stroke:#0a0a0a;stroke-width:0.6;" x="79.11377" xlink:href="#mcde413c146" y="16.804925"/>
      </g>
     </g>
     <g id="line2d_142">
      <g>
       <use style="fill:#0a0a0a;stroke:#0a0a0a;stroke-width:0.6;" x="565.2" xlink:href="#mbb32689092" y="16.804925"/>
      </g>
     </g>
    </g>
    <g id="text_10">
     <!-- Average error -->
     <defs>
      <path d="M 36.296875 68.40625 
C 35.796875 69.703125 35.59375 70 34.59375 70 
C 33.59375 70 33.40625 69.703125 32.90625 68.40625 
L 11.703125 8.84375 
C 9.796875 3.484375 5.796875 2.390625 2.296875 2.390625 
L 2.296875 -0.203125 
C 4.09375 0 8.09375 0 10 0 
C 12.5 0 16.5 0 18.90625 -0.203125 
L 18.90625 2.390625 
C 14.203125 2.390625 13.5 5.640625 13.5 6.859375 
C 13.5 7.765625 13.703125 8.28125 13.90625 8.890625 
L 19.203125 24 
L 45.40625 24 
L 51.40625 6.90625 
C 51.90625 5.703125 51.90625 5.5 51.90625 5.109375 
C 51.90625 2.390625 47.59375 2.390625 45.703125 2.390625 
L 45.703125 0 
C 48.59375 0 53.796875 0 56.90625 0 
C 59.5 0 64.5 0 66.90625 -0.203125 
L 66.90625 2.390625 
C 61.59375 2.390625 59.796875 2.390625 58.5 6.046875 
z
M 32.296875 60.828125 
L 44.5 26.59375 
L 20.09375 26.59375 
z
" id="CMR17-65"/>
      <path d="M 39.09375 33.796875 
C 40 36 41.59375 40 47.40625 40 
L 47.40625 42.59375 
C 45.5 42.59375 43 42.59375 41.09375 42.59375 
C 39 42.59375 35.703125 42.59375 33.703125 42.6875 
L 33.703125 40.09375 
C 36.203125 39.890625 37.59375 38.703125 37.59375 36.109375 
C 37.59375 35.203125 37.59375 35 37 33.609375 
L 26 5.890625 
L 14.09375 35.71875 
C 13.5 37.015625 13.5 37.203125 13.5 37.609375 
C 13.5 40 16.796875 40 18.296875 40 
L 18.296875 42.6875 
C 15.90625 42.59375 11.5 42.59375 9 42.59375 
C 6.296875 42.59375 3.203125 42.59375 1 42.6875 
L 1 40 
C 4.796875 40 6.90625 40 8.09375 36.90625 
L 22.59375 0.6875 
C 23.203125 -0.796875 23.296875 -1 24.203125 -1 
C 25.09375 -1 25.203125 -0.796875 25.796875 0.6875 
z
" id="CMR17-118"/>
      <path d="M 38.09375 23 
C 38.5 23.40625 38.5 23.609375 38.5 24.625 
C 38.5 34.96875 33.09375 44 21.703125 44 
C 11.09375 44 2.703125 33.890625 2.703125 21.609375 
C 2.703125 8.609375 12.203125 -1 22.796875 -1 
C 34 -1 38.40625 9.484375 38.40625 11.5625 
C 38.40625 12.25 37.796875 12.25 37.59375 12.25 
C 36.90625 12.25 36.796875 12.046875 36.40625 10.875 
C 34.203125 4.140625 28.703125 0.796875 23.5 0.796875 
C 19.203125 0.796875 14.90625 3.171875 12.203125 7.5 
C 9.09375 12.546875 9.09375 18.375 9.09375 23 
z
M 9.203125 24.5 
C 9.90625 39.140625 17.59375 42.40625 21.59375 42.40625 
C 28.40625 42.40625 33 35.890625 33.09375 24.5 
z
" id="CMR17-101"/>
      <path d="M 15 23.390625 
C 15 33 19.09375 42 26.59375 42 
C 27.296875 42 28 41.90625 28.703125 41.59375 
C 28.703125 41.59375 26.5 40.890625 26.5 38.3125 
C 26.5 35.90625 28.40625 34.90625 29.90625 34.90625 
C 31.09375 34.90625 33.296875 35.609375 33.296875 38.40625 
C 33.296875 41.609375 30.09375 43.59375 26.703125 43.59375 
C 19.09375 43.59375 15.796875 36.203125 14.796875 32.703125 
L 14.703125 32.703125 
L 14.703125 43.59375 
L 3.09375 42.5 
L 3.09375 39.90625 
C 9 39.90625 9.90625 39.296875 9.90625 34.5 
L 9.90625 6.6875 
C 9.90625 2.875 9.5 2.390625 3.09375 2.390625 
L 3.09375 -0.203125 
C 5.5 0 10.09375 0 12.703125 0 
C 15.59375 0 20.703125 0 23.40625 -0.203125 
L 23.40625 2.390625 
C 16.203125 2.390625 15 2.390625 15 6.875 
z
" id="CMR17-114"/>
      <path d="M 36 25.828125 
C 36 32.375 36 35.84375 31.796875 39.734375 
C 28.09375 43 23.796875 44 20.40625 44 
C 12.5 44 6.796875 37.609375 6.796875 30.796875 
C 6.796875 27 9.796875 27 10.40625 27 
C 11.703125 27 14 27.78125 14 30.53125 
C 14 33 12.09375 34.078125 10.40625 34.078125 
C 10 34.078125 9.5 33.96875 9.203125 33.875 
C 11.296875 40.5 16.703125 42.40625 20.203125 42.40625 
C 25.203125 42.40625 30.703125 37.953125 30.703125 29.453125 
L 30.703125 25 
C 24.796875 25 17.703125 24.203125 12.09375 21.203125 
C 5.796875 17.703125 4 12.703125 4 8.90625 
C 4 1.203125 13 -1 18.296875 -1 
C 23.796875 -1 28.90625 2.171875 31.09375 7.984375 
C 31.296875 3.640625 34.09375 -0.28125 38.5 -0.28125 
C 40.59375 -0.28125 45.90625 1.09375 45.90625 8.859375 
L 45.90625 14.375 
L 44.09375 14.375 
L 44.09375 8.78125 
C 44.09375 2.78125 41.40625 2 40.09375 2 
C 36 2 36 7.15625 36 11.53125 
z
M 30.703125 13.59375 
C 30.703125 4.953125 24.5 0.59375 19 0.59375 
C 14 0.59375 10.09375 4.296875 10.09375 8.90625 
C 10.09375 11.890625 11.40625 17.1875 17.203125 20.390625 
C 22 23.09375 27.5 23.5 30.703125 23.5 
z
" id="CMR17-97"/>
      <path d="M 11.09375 18.1875 
C 13 16.6875 16.296875 15 20.296875 15 
C 28.203125 15 35 21.203125 35 29.5 
C 35 32.09375 34.203125 36.09375 31.203125 39.203125 
C 34 42.0625 38.09375 43 40.40625 43 
C 40.796875 43 41.40625 43 41.90625 42.71875 
C 41.5 42.625 40.59375 42.234375 40.59375 40.703125 
C 40.59375 39.484375 41.5 38.609375 42.796875 38.609375 
C 44.296875 38.609375 45.09375 39.578125 45.09375 40.84375 
C 45.09375 42.671875 43.59375 44.59375 40.40625 44.59375 
C 36.40625 44.59375 32.90625 42.78125 30.09375 40.3125 
C 27.09375 43.015625 23.5 44 20.296875 44 
C 12.40625 44 5.59375 37.796875 5.59375 29.5 
C 5.59375 23.78125 8.90625 20.1875 9.90625 19.1875 
C 6.90625 15.6875 6.90625 11.609375 6.90625 11.109375 
C 6.90625 8.515625 7.90625 4.71875 11.296875 2.625 
C 6.09375 1.328125 2 -2.640625 2 -7.59375 
C 2 -14.734375 11.5 -20 22.90625 -20 
C 33.90625 -20 43.796875 -14.9375 43.796875 -7.484375 
C 43.796875 6 29 6 21.296875 6 
C 19 6 14.90625 6 14.40625 6.109375 
C 11.296875 6.609375 9.203125 9.40625 9.203125 12.90625 
C 9.203125 13.796875 9.203125 16 11.09375 18.1875 
z
M 20.296875 16.6875 
C 11.5 16.6875 11.5 27.5 11.5 29.515625 
C 11.5 31.5 11.5 42.3125 20.296875 42.3125 
C 29.09375 42.3125 29.09375 31.5 29.09375 29.515625 
C 29.09375 27.5 29.09375 16.6875 20.296875 16.6875 
z
M 22.90625 -18.296875 
C 12.90625 -18.296875 6 -13.046875 6 -7.59375 
C 6 -4.515625 7.703125 -1.640625 9.90625 -0.0625 
C 12.40625 1.625 13.40625 1.625 20.203125 1.625 
C 28.40625 1.625 39.796875 1.625 39.796875 -7.59375 
C 39.796875 -13.046875 32.90625 -18.296875 22.90625 -18.296875 
z
" id="CMR17-103"/>
      <path d="M 43.09375 21.1875 
C 43.09375 34 33.796875 44 22.90625 44 
C 12 44 2.703125 34 2.703125 21.1875 
C 2.703125 8.609375 12 -1 22.90625 -1 
C 33.796875 -1 43.09375 8.609375 43.09375 21.1875 
z
M 22.90625 0.796875 
C 18.203125 0.796875 14.203125 3.59375 11.90625 7.5 
C 9.40625 11.984375 9.09375 17.59375 9.09375 22 
C 9.09375 26.203125 9.296875 31.40625 11.90625 35.90625 
C 13.90625 39.203125 17.796875 42.40625 22.90625 42.40625 
C 27.40625 42.40625 31.203125 39.90625 33.59375 36.40625 
C 36.703125 31.703125 36.703125 25.109375 36.703125 22 
C 36.703125 18.09375 36.5 12.109375 33.796875 7.296875 
C 31 2.703125 26.703125 0.796875 22.90625 0.796875 
z
" id="CMR17-111"/>
     </defs>
     <g style="fill:#0a0a0a;" transform="translate(27.46667 255.915825)rotate(-90)scale(0.24 -0.24)">
      <use transform="translate(0 -0.072667)scale(0.996264)" xlink:href="#CMR17-65"/>
      <use transform="translate(69.07243 -0.072667)scale(0.996264)" xlink:href="#CMR17-118"/>
      <use transform="translate(114.762892 -0.072667)scale(0.996264)" xlink:href="#CMR17-101"/>
      <use transform="translate(155.248552 -0.072667)scale(0.996264)" xlink:href="#CMR17-114"/>
      <use transform="translate(190.52932 -0.072667)scale(0.996264)" xlink:href="#CMR17-97"/>
      <use transform="translate(236.219797 -0.072667)scale(0.996264)" xlink:href="#CMR17-103"/>
      <use transform="translate(281.910274 -0.072667)scale(0.996264)" xlink:href="#CMR17-101"/>
      <use transform="translate(352.471901 -0.072667)scale(0.996264)" xlink:href="#CMR17-101"/>
      <use transform="translate(392.957561 -0.072667)scale(0.996264)" xlink:href="#CMR17-114"/>
      <use transform="translate(428.238329 -0.072667)scale(0.996264)" xlink:href="#CMR17-114"/>
      <use transform="translate(463.519097 -0.072667)scale(0.996264)" xlink:href="#CMR17-111"/>
      <use transform="translate(509.209574 -0.072667)scale(0.996264)" xlink:href="#CMR17-114"/>
     </g>
    </g>
   </g>
   <g id="line2d_143">
    <path clip-path="url(#p8487b0a42e)" d="M 162.932286 27.12109 
L 166.768039 29.74359 
L 170.603792 32.366089 
L 174.439544 34.988588 
L 178.275297 37.611088 
L 182.11105 40.233587 
L 185.946802 42.856086 
L 189.782555 45.478585 
L 193.618308 48.101085 
L 197.45406 50.723584 
L 201.289813 53.346083 
L 205.125566 55.968582 
L 208.961318 58.591082 
L 212.797071 61.213581 
L 216.632824 63.83608 
L 220.468576 66.458579 
L 224.304329 69.081079 
L 228.140082 71.703578 
L 231.975834 74.326077 
L 235.811587 76.948576 
L 239.64734 79.571076 
L 243.483092 82.193575 
L 247.318845 84.816074 
L 251.154598 87.438573 
L 254.99035 90.061073 
L 258.826103 92.683572 
L 262.661856 95.306071 
L 266.497608 97.928571 
L 270.333361 100.55107 
L 274.169113 103.173569 
L 278.004866 105.796068 
L 281.840619 108.418568 
L 285.676371 111.041067 
L 289.512124 113.663566 
L 293.347877 116.286065 
L 297.183629 118.908565 
L 301.019382 121.531064 
L 304.855135 124.153563 
L 308.690887 126.776062 
L 312.52664 129.398562 
L 316.362393 132.021061 
L 320.198145 134.64356 
L 324.033898 137.266059 
L 327.869651 139.888559 
L 331.705403 142.511058 
L 335.541156 145.133557 
L 339.376909 147.756057 
L 343.212661 150.378556 
L 347.048414 153.001055 
L 350.884167 155.623554 
L 354.719919 158.246054 
L 358.555672 160.868553 
L 362.391425 163.491052 
L 366.227177 166.113551 
L 370.06293 168.736051 
L 373.898683 171.35855 
L 377.734435 173.981049 
L 381.570188 176.603548 
L 385.405941 179.226048 
L 389.241693 181.848547 
L 393.077446 184.471046 
L 396.913199 187.093545 
L 400.748951 189.716045 
L 404.584704 192.338544 
L 408.420457 194.961043 
L 412.256209 197.583542 
L 416.091962 200.206042 
L 419.927715 202.828541 
L 423.763467 205.45104 
L 427.59922 208.07354 
L 431.434973 210.696039 
L 435.270725 213.318538 
L 439.106478 215.941037 
L 442.942231 218.563537 
L 446.777983 221.186036 
L 450.613736 223.808535 
L 454.449489 226.431034 
L 458.285241 229.053534 
L 462.120994 231.676033 
L 465.956747 234.298532 
L 469.792499 236.921031 
L 473.628252 239.543531 
L 477.464005 242.16603 
L 481.299757 244.788529 
L 485.13551 247.411028 
L 488.971263 250.033528 
L 492.807015 252.656027 
L 496.642768 255.278526 
L 500.478521 257.901026 
L 504.314273 260.523525 
L 508.150026 263.146024 
L 511.985779 265.768523 
L 515.821531 268.391023 
L 519.657284 271.013522 
L 523.493037 273.636021 
L 527.328789 276.25852 
L 531.164542 278.88102 
L 535.000295 281.503519 
L 538.836047 284.126018 
L 542.6718 286.748517 
" style="fill:none;stroke:#87cefa;stroke-linecap:square;stroke-width:2;"/>
   </g>
   <g id="line2d_144">
    <path clip-path="url(#p8487b0a42e)" d="M 162.932286 86.497749 
L 166.768039 89.195175 
L 170.603792 91.892601 
L 174.439544 94.590026 
L 178.275297 97.287452 
L 182.11105 99.984878 
L 185.946802 102.682304 
L 189.782555 105.379729 
L 193.618308 108.077155 
L 197.45406 110.774581 
L 201.289813 113.472007 
L 205.125566 116.169433 
L 208.961318 118.866858 
L 212.797071 121.564284 
L 216.632824 124.26171 
L 220.468576 126.959136 
L 224.304329 129.656561 
L 228.140082 132.353987 
L 231.975834 135.051413 
L 235.811587 137.748839 
L 239.64734 140.446264 
L 243.483092 143.14369 
L 247.318845 145.841116 
L 251.154598 148.538542 
L 254.99035 151.235967 
L 258.826103 153.933393 
L 262.661856 156.630819 
L 266.497608 159.328245 
L 270.333361 162.02567 
L 274.169113 164.723096 
L 278.004866 167.420522 
L 281.840619 170.117948 
L 285.676371 172.815374 
L 289.512124 175.512799 
L 293.347877 178.210225 
L 297.183629 180.907651 
L 301.019382 183.605077 
L 304.855135 186.302502 
L 308.690887 188.999928 
L 312.52664 191.697354 
L 316.362393 194.39478 
L 320.198145 197.092205 
L 324.033898 199.789631 
L 327.869651 202.487057 
L 331.705403 205.184483 
L 335.541156 207.881908 
L 339.376909 210.579334 
L 343.212661 213.27676 
L 347.048414 215.974186 
L 350.884167 218.671611 
L 354.719919 221.369037 
L 358.555672 224.066463 
L 362.391425 226.763889 
L 366.227177 229.461315 
L 370.06293 232.15874 
L 373.898683 234.856166 
L 377.734435 237.553592 
L 381.570188 240.251018 
L 385.405941 242.948443 
L 389.241693 245.645869 
L 393.077446 248.343295 
L 396.913199 251.040721 
L 400.748951 253.738146 
L 404.584704 256.435572 
L 408.420457 259.132998 
L 412.256209 261.830424 
L 416.091962 264.527849 
L 419.927715 267.225275 
L 423.763467 269.922701 
L 427.59922 272.620127 
L 431.434973 275.317552 
L 435.270725 278.014978 
L 439.106478 280.712404 
L 442.942231 283.40983 
L 446.777983 286.107256 
L 450.613736 288.804681 
L 454.449489 291.502107 
L 458.285241 294.199533 
L 462.120994 296.896959 
L 465.956747 299.594384 
L 469.792499 302.29181 
L 473.628252 304.989236 
L 477.464005 307.686662 
L 481.299757 310.384087 
L 485.13551 313.081513 
L 488.971263 315.778939 
L 492.807015 318.476365 
L 496.642768 321.17379 
L 500.478521 323.871216 
L 504.314273 326.568642 
L 508.150026 329.266068 
L 511.985779 331.963493 
L 515.821531 334.660919 
L 519.657284 337.358345 
L 523.493037 340.055771 
L 527.328789 342.753196 
L 531.164542 345.450622 
L 535.000295 348.148048 
L 538.836047 350.845474 
L 542.6718 353.5429 
" style="fill:none;stroke:#1e90ff;stroke-linecap:square;stroke-width:2;"/>
   </g>
   <g id="patch_3">
    <path d="M 79.11377 369.86399 
L 79.11377 10.8 
" style="fill:none;stroke:#0a0a0a;stroke-linecap:square;stroke-linejoin:miter;stroke-width:0.8;"/>
   </g>
   <g id="patch_4">
    <path d="M 565.2 369.86399 
L 565.2 10.8 
" style="fill:none;stroke:#0a0a0a;stroke-linecap:square;stroke-linejoin:miter;stroke-width:0.8;"/>
   </g>
   <g id="patch_5">
    <path d="M 79.11377 369.86399 
L 565.2 369.86399 
" style="fill:none;stroke:#0a0a0a;stroke-linecap:square;stroke-linejoin:miter;stroke-width:0.8;"/>
   </g>
   <g id="patch_6">
    <path d="M 79.11377 10.8 
L 565.2 10.8 
" style="fill:none;stroke:#0a0a0a;stroke-linecap:square;stroke-linejoin:miter;stroke-width:0.8;"/>
   </g>
   <g id="legend_1">
    <g id="patch_7">
     <path d="M 95.91377 357.86399 
L 262.18266 357.86399 
Q 266.98266 357.86399 266.98266 353.06399 
L 266.98266 288.52759 
Q 266.98266 283.72759 262.18266 283.72759 
L 95.91377 283.72759 
Q 91.11377 283.72759 91.11377 288.52759 
L 91.11377 353.06399 
Q 91.11377 357.86399 95.91377 357.86399 
z
" style="fill:#fefefe;opacity:0.8;stroke:#cccccc;stroke-linejoin:miter;"/>
    </g>
    <g id="line2d_145">
     <path d="M 100.71377 301.72759 
L 148.71377 301.72759 
" style="fill:none;stroke:#87cefa;stroke-linecap:square;stroke-width:2;"/>
    </g>
    <g id="line2d_146"/>
    <g id="text_11">
     <!-- $\propto N^{-1.89}$ -->
     <defs>
      <path d="M 72.203125 3.203125 
C 71.796875 3.203125 70.203125 3 69.90625 3 
C 62 3 56.703125 10.796875 53.296875 16 
C 52.296875 17.703125 49.59375 21.796875 48.5 23.5 
C 50.90625 28.90625 57.59375 41.296875 69.5 41.296875 
C 70.203125 41.296875 71.09375 41.296875 72.203125 41 
C 72.203125 43.59375 72.09375 43.703125 71.90625 43.90625 
C 71.203125 44.09375 69.703125 44.203125 68.796875 44.203125 
C 56.09375 44.203125 48.703125 32 46.296875 27 
C 42.296875 33.09375 40.90625 35.296875 37.203125 38.40625 
C 31.09375 43.703125 25.59375 44.203125 23.09375 44.203125 
C 12 44.203125 5.59375 33 5.59375 21.5 
C 5.59375 10.296875 11.796875 -1.09375 22.796875 -1.09375 
C 35.5 -1.09375 42.90625 11.09375 45.296875 16.09375 
C 49.296875 10 50.703125 7.796875 54.40625 4.703125 
C 60.5 -0.59375 66 -1.09375 68.5 -1.09375 
C 69.703125 -1.09375 71.296875 -0.90625 72.203125 -0.6875 
z
M 43.09375 19.59375 
C 40.703125 14.203125 34 1.796875 22.09375 1.796875 
C 12.40625 1.796875 7.796875 12.40625 7.796875 21.5 
C 7.796875 31.40625 13.40625 40.09375 21.703125 40.09375 
C 29.59375 40.09375 34.90625 32.296875 38.296875 27.09375 
C 39.296875 25.40625 42 21.296875 43.09375 19.59375 
z
" id="CMSY10-47"/>
      <path d="M 18.40625 4.796875 
C 18.40625 7.6875 16 9.671875 13.59375 9.671875 
C 10.703125 9.671875 8.703125 7.28125 8.703125 4.890625 
C 8.703125 2 11.09375 0 13.5 0 
C 16.40625 0 18.40625 2.390625 18.40625 4.796875 
z
" id="CMMI12-58"/>
      <path d="M 27.203125 35.375 
C 33.5 38.546875 39.90625 43.328125 39.90625 50.984375 
C 39.90625 60.015625 31.09375 65.296875 23 65.296875 
C 13.90625 65.296875 5.90625 58.734375 5.90625 49.6875 
C 5.90625 47.203125 6.5 42.921875 10.40625 39.140625 
C 11.40625 38.15625 15.59375 35.171875 18.296875 33.28125 
C 13.796875 30.984375 3.296875 25.53125 3.296875 14.59375 
C 3.296875 4.359375 13.09375 -2 22.796875 -2 
C 33.5 -2 42.5 5.65625 42.5 15.78125 
C 42.5 24.84375 36.40625 29.015625 32.40625 31.703125 
z
M 14.09375 44.09375 
C 13.296875 44.59375 9.296875 47.671875 9.296875 52.359375 
C 9.296875 58.421875 15.59375 63 22.796875 63 
C 30.703125 63 36.5 57.4375 36.5 50.96875 
C 36.5 41.703125 26.09375 36.421875 25.59375 36.421875 
C 25.5 36.421875 25.40625 36.421875 24.59375 37.03125 
z
M 32.5 23.734375 
C 34 22.640625 38.796875 19.375 38.796875 13.296875 
C 38.796875 5.953125 31.40625 0.390625 23 0.390625 
C 13.90625 0.390625 7 6.84375 7 14.6875 
C 7 22.546875 13.09375 29.09375 20 32.1875 
z
" id="CMR17-56"/>
      <path d="M 35.203125 29.125 
C 35.203125 7.25 26.09375 0.484375 18.59375 0.484375 
C 16.296875 0.484375 10.703125 0.484375 8.40625 4.59375 
C 11 4.1875 12.90625 5.578125 12.90625 8.09375 
C 12.90625 10.8125 10.703125 11.703125 9.296875 11.703125 
C 8.40625 11.703125 5.703125 11.296875 5.703125 7.90625 
C 5.703125 1.109375 11.59375 -2 18.796875 -2 
C 30.296875 -2 42 10.53125 42 32.390625 
C 42 59.640625 30.796875 65.296875 23.203125 65.296875 
C 13.296875 65.296875 3.796875 56.6875 3.796875 43.40625 
C 3.796875 31.109375 11.90625 22 22.09375 22 
C 30.5 22 34.203125 29.734375 35.203125 33 
z
M 22.296875 23.59375 
C 19.59375 23.59375 15.796875 24.09375 12.703125 30.03125 
C 10.59375 33.890625 10.59375 38.453125 10.59375 43.296875 
C 10.59375 49.15625 10.59375 53.203125 13.40625 57.5625 
C 14.796875 59.640625 17.40625 63 23.203125 63 
C 35 63 35 45.078125 35 41.125 
C 35 34.09375 31.796875 23.59375 22.296875 23.59375 
z
" id="CMR17-57"/>
     </defs>
     <g style="fill:#0a0a0a;" transform="translate(167.91377 310.12759)scale(0.24 -0.24)">
      <use transform="scale(0.996264)" xlink:href="#CMSY10-47"/>
      <use transform="translate(105.161476 0)scale(0.996264)" xlink:href="#CMMI12-78"/>
      <use transform="translate(193.683249 36.153639)scale(0.697382)" xlink:href="#CMSY10-0"/>
      <use transform="translate(247.924242 36.153639)scale(0.697382)" xlink:href="#CMR17-49"/>
      <use transform="translate(279.907424 36.153639)scale(0.697382)" xlink:href="#CMMI12-58"/>
      <use transform="translate(298.875357 36.153639)scale(0.697382)" xlink:href="#CMR17-56"/>
      <use transform="translate(330.858539 36.153639)scale(0.697382)" xlink:href="#CMR17-57"/>
     </g>
    </g>
    <g id="line2d_147">
     <path d="M 100.71377 335.19579 
L 148.71377 335.19579 
" style="fill:none;stroke:#1e90ff;stroke-linecap:square;stroke-width:2;"/>
    </g>
    <g id="line2d_148"/>
    <g id="text_12">
     <!-- $\propto N^{-1.95}$ -->
     <g style="fill:#0a0a0a;" transform="translate(167.91377 343.59579)scale(0.24 -0.24)">
      <use transform="scale(0.996264)" xlink:href="#CMSY10-47"/>
      <use transform="translate(105.161476 0)scale(0.996264)" xlink:href="#CMMI12-78"/>
      <use transform="translate(193.683249 36.153639)scale(0.697382)" xlink:href="#CMSY10-0"/>
      <use transform="translate(247.924242 36.153639)scale(0.697382)" xlink:href="#CMR17-49"/>
      <use transform="translate(279.907424 36.153639)scale(0.697382)" xlink:href="#CMMI12-58"/>
      <use transform="translate(298.875357 36.153639)scale(0.697382)" xlink:href="#CMR17-57"/>
      <use transform="translate(330.858539 36.153639)scale(0.697382)" xlink:href="#CMR17-53"/>
     </g>
    </g>
   </g>
  </g>
 </g>
 <defs>
  <clipPath id="p8487b0a42e">
   <rect height="359.06399" width="486.08623" x="79.11377" y="10.8"/>
  </clipPath>
 </defs>
</svg>
